<?xml version="1.0" encoding="utf-8"?>
<!-- Generated by IcoMoon.io -->
<!DOCTYPE svg PUBLIC "-//W3C//DTD SVG 1.1//EN" "http://www.w3.org/Graphics/SVG/1.1/DTD/svg11.dtd">
<svg version="1.1" xmlns="http://www.w3.org/2000/svg" xmlns:xlink="http://www.w3.org/1999/xlink" width="15" height="16" viewBox="0 0 15 16">
<path fill="#333" d="M8 4.95v8.050h2.050c0.232-1.141 1.241-2 2.45-2 1.381 0 2.5 1.119 2.5 2.5s-1.119 2.5-2.5 2.5c-1.209 0-2.218-0.859-2.45-2v0h-3.050v-5h-2.050c-0.232 1.141-1.241 2-2.45 2-1.381 0-2.5-1.119-2.5-2.5s1.119-2.5 2.5-2.5c1.209 0 2.218 0.859 2.45 2h2.050v-3.050c-1.141-0.232-2-1.241-2-2.45 0-1.381 1.119-2.5 2.5-2.5s2.5 1.119 2.5 2.5c0 1.209-0.859 2.218-2 2.45z"></path>
</svg>
