<?xml version="1.0" encoding="utf-8"?>
<!-- Generated by IcoMoon.io -->
<!DOCTYPE svg PUBLIC "-//W3C//DTD SVG 1.1//EN" "http://www.w3.org/Graphics/SVG/1.1/DTD/svg11.dtd">
<svg version="1.1" xmlns="http://www.w3.org/2000/svg" xmlns:xlink="http://www.w3.org/1999/xlink" width="34" height="32" viewBox="0 0 34 32">
<path fill="#333" d="M0 7.529l1.882 24.471h30.118l1.882-24.471h-0.345c-1.542 0.206-1.854 1.862-7.184 1.882-5.202-0.020-4.422-1.675-8.667-1.882h-1.794c-4.072 0.207-3.739 1.862-8.363 1.882-4.962-0.020-5.343-1.677-7.124-1.882h-0.405zM21.252 26.283h-0.096c-0.384 0.683-1.003 1.243-1.856 1.68s-1.824 0.656-2.912 0.656c-0.619 0-1.264-0.080-1.936-0.24s-1.291-0.427-1.856-0.8c-0.565-0.373-1.035-0.864-1.408-1.472s-0.56-1.36-0.56-2.256c0-1.152 0.325-2.069 0.976-2.752s1.488-1.205 2.512-1.568c1.024-0.363 2.16-0.603 3.408-0.72s2.469-0.176 3.664-0.176v-0.384c0-0.96-0.347-1.669-1.040-2.128s-1.52-0.688-2.48-0.688c-0.811 0-1.589 0.171-2.336 0.512s-1.365 0.757-1.856 1.248l-1.984-2.336c0.875-0.811 1.883-1.419 3.024-1.824s2.299-0.608 3.472-0.608c1.365 0 2.491 0.192 3.376 0.576s1.584 0.885 2.096 1.504c0.512 0.619 0.869 1.312 1.072 2.080s0.304 1.536 0.304 2.304v9.344h-3.584v-1.952zM21.188 21.227h-0.864c-0.619 0-1.269 0.027-1.952 0.080s-1.312 0.171-1.888 0.352c-0.576 0.181-1.056 0.437-1.44 0.768s-0.576 0.784-0.576 1.36c0 0.363 0.080 0.667 0.24 0.912s0.368 0.443 0.624 0.592c0.256 0.149 0.544 0.256 0.864 0.32s0.64 0.096 0.96 0.096c1.323 0 2.325-0.352 3.008-1.056s1.024-1.664 1.024-2.88v-0.544z"></path>
<path fill="#333" d="M32 5.647c0 0-1.471 1.871-5.551 1.871s-5.478-1.871-10.074-1.871c-4.595 0-5.71 1.871-8.811 1.871s-5.682-1.871-5.682-1.871l1.882-5.647h11.294l1.882 1.882h13.176l1.882 3.765z"></path>
</svg>
