<?xml version="1.0" encoding="utf-8"?>
<!-- Generated by IcoMoon.io -->
<!DOCTYPE svg PUBLIC "-//W3C//DTD SVG 1.1//EN" "http://www.w3.org/Graphics/SVG/1.1/DTD/svg11.dtd">
<svg version="1.1" xmlns="http://www.w3.org/2000/svg" xmlns:xlink="http://www.w3.org/1999/xlink" width="32" height="32" viewBox="0 0 32 32">
<path fill="#333" d="M26.601 0l1.844 16h-1.844l-1.844-14.025h-17.514l-1.844 14.025h-1.844l1.844-16h21.202zM8.889 14.222h14.222v1.778h-14.222v-1.778zM8.889 10.667h14.222v1.778h-14.222v-1.778zM8.889 7.111h14.222v1.778h-14.222v-1.778zM8.889 3.556h14.222v1.778h-14.222v-1.778zM31.255 17.778h-30.51c-0.559 0-0.872 0.443-0.695 0.984l3.425 10.477c0.177 0.541 0.779 0.984 1.339 0.984h22.374c0.559 0 1.162-0.443 1.339-0.984l3.425-10.477c0.177-0.541-0.136-0.984-0.695-0.984v0zM21.333 21.333h-10.667v-1.778h10.667v1.778z"></path>
</svg>
