<?xml version="1.0" encoding="utf-8"?>
<!-- Generated by IcoMoon.io -->
<!DOCTYPE svg PUBLIC "-//W3C//DTD SVG 1.1//EN" "http://www.w3.org/Graphics/SVG/1.1/DTD/svg11.dtd">
<svg version="1.1" xmlns="http://www.w3.org/2000/svg" xmlns:xlink="http://www.w3.org/1999/xlink" width="32" height="32" viewBox="0 0 32 32">
<path fill="#333" d="M26.601 0l0.599 5.333h-1.844l-0.599-3.358h-17.514l-1.488 10.469h-1.844l1.488-12.444h21.202zM8.889 10.667h10.667v1.778h-10.667v-1.778zM8.889 7.111h14.222v1.778h-14.222v-1.778zM8.889 3.556h14.222v1.778h-14.222v-1.778z"></path>
<path fill="#333" d="M29.63 17.778h1.625c0.559 0 0.872 0.443 0.695 0.984l-3.425 10.477c-0.177 0.541-0.779 0.984-1.339 0.984h-2.397l4.84-12.444zM0.16 18.017c-0.157 0.181-0.207 0.448-0.11 0.744l3.425 10.477c0.177 0.541 0.779 0.984 1.339 0.984h3.483l-8.137-12.205z"></path>
<path fill="#333" d="M5.333 20.947l3.982-4.019 6.969 6.029 13.938-14.068-13.938 23.111-10.951-11.053z"></path>
</svg>
