<?xml version="1.0" encoding="utf-8"?>
<!-- Generated by IcoMoon.io -->
<!DOCTYPE svg PUBLIC "-//W3C//DTD SVG 1.1//EN" "http://www.w3.org/Graphics/SVG/1.1/DTD/svg11.dtd">
<svg version="1.1" xmlns="http://www.w3.org/2000/svg" xmlns:xlink="http://www.w3.org/1999/xlink" width="16" height="16" viewBox="0 0 16 16">
<path fill="#333" d="M1.5 6.004v0 3.991c0 0.553 0.447 1.004 0.998 1.004h11.003c0.551 0 0.998-0.45 0.998-1.004v-3.991c0-0.553-0.447-1.004-0.998-1.004h-11.003c-0.551 0-0.998 0.45-0.998 1.004v0zM0 6.004v0c0-1.381 1.117-2.504 2.498-2.504h11.003c1.382 0 2.498 1.124 2.498 2.504v3.991c0 1.381-1.117 2.504-2.498 2.504h-11.003c-1.382 0-2.498-1.124-2.498-2.504v-3.991z"></path>
<path fill="#333" d="M8 6l-2 4h-2.5l2-4h2.5z"></path>
<path fill="#333" d="M12 6l-2 4h-2.5l2-4h2.5z"></path>
<path fill="#333" d="M2.5 9l1.5-3h-1.5v3z"></path>
</svg>
