<?xml version="1.0" encoding="utf-8"?>
<!-- Generated by IcoMoon.io -->
<!DOCTYPE svg PUBLIC "-//W3C//DTD SVG 1.1//EN" "http://www.w3.org/Graphics/SVG/1.1/DTD/svg11.dtd">
<svg version="1.1" xmlns="http://www.w3.org/2000/svg" xmlns:xlink="http://www.w3.org/1999/xlink" width="32" height="32" viewBox="0 0 32 32">
<path fill="#333" d="M14.769 0h-11.077c-1.359 0-2.462 1.102-2.462 2.462v1.231c0 1.359 1.102 2.462 2.462 2.462h11.077c1.36 0 2.462-1.102 2.462-2.462v-1.231c0-1.359-1.102-2.462-2.462-2.462z"></path>
<path fill="#333" d="M14.769 12.308h-11.077c-1.359 0-2.462 1.102-2.462 2.462v1.231c0 1.36 1.102 2.462 2.462 2.462h11.077c1.36 0 2.462-1.102 2.462-2.462v-1.231c0-1.36-1.102-2.462-2.462-2.462z"></path>
<path fill="#333" d="M14.769 24.615h-11.077c-1.359 0-2.462 1.102-2.462 2.462v1.231c0 1.36 1.102 2.462 2.462 2.462h11.077c1.36 0 2.462-1.102 2.462-2.462v-1.231c0-1.36-1.102-2.462-2.462-2.462z"></path>
<path fill="#333" d="M30.769 15.385l-7.385-6.769v13.538l7.385-6.769z"></path>
</svg>
