<?xml version="1.0" encoding="utf-8"?>
<!-- Generated by IcoMoon.io -->
<!DOCTYPE svg PUBLIC "-//W3C//DTD SVG 1.1//EN" "http://www.w3.org/Graphics/SVG/1.1/DTD/svg11.dtd">
<svg version="1.1" xmlns="http://www.w3.org/2000/svg" xmlns:xlink="http://www.w3.org/1999/xlink" width="16" height="16" viewBox="0 0 16 16">
<path fill="#333" d="M14 0h-12c-0.553 0-1 0.447-1 1v14c0 0.553 0.447 1 1 1h12c0.553 0 1-0.447 1-1v-14c0-0.553-0.447-1-1-1zM5 14h-2v-2h2v2zM5 11h-2v-2h2v2zM5 8h-2v-2h2v2zM9 14h-2v-2h2v2zM9 11h-2v-2h2v2zM9 8h-2v-2h2v2zM13 14h-2v-2h2v2zM13 11h-2v-2h2v2zM13 8h-2v-2h2v2zM13 4h-10v-2h10v2z"></path>
</svg>
