<?xml version="1.0" encoding="utf-8"?>
<!-- Generated by IcoMoon.io -->
<!DOCTYPE svg PUBLIC "-//W3C//DTD SVG 1.1//EN" "http://www.w3.org/Graphics/SVG/1.1/DTD/svg11.dtd">
<svg version="1.1" xmlns="http://www.w3.org/2000/svg" xmlns:xlink="http://www.w3.org/1999/xlink" width="32" height="32" viewBox="0 0 32 32">
<path fill="#889cae" d="M22.769 7.385l-1.414-3.771c-0.239-0.636-0.983-1.152-1.663-1.152h-7.385c-0.68 0-1.458 0.501-1.722 1.127-0.437 1.038-1.052 2.594-1.355 3.796h-7.231c-1.1 0-2 0.892-2 1.981v18.191c0 1.090 0.9 1.981 2 1.981h28c1.1 0 2-0.892 2-1.981v-18.191c0-1.090-0.9-1.981-2-1.981h-7.231zM18.462 8.615h-4.923v-3.692h4.923v3.692zM23.385 18.462c0 4.078-3.306 7.385-7.385 7.385s-7.385-3.306-7.385-7.385c0-4.078 3.306-7.385 7.385-7.385s7.385 3.306 7.385 7.385z"></path>
<path fill="#889cae" d="M19.692 18.462c0 2.039-1.653 3.692-3.692 3.692s-3.692-1.653-3.692-3.692c0-2.039 1.653-3.692 3.692-3.692s3.692 1.653 3.692 3.692z"></path>
</svg>
