<?xml version="1.0" encoding="utf-8"?>
<!-- Generated by IcoMoon.io -->
<!DOCTYPE svg PUBLIC "-//W3C//DTD SVG 1.1//EN" "http://www.w3.org/Graphics/SVG/1.1/DTD/svg11.dtd">
<svg version="1.1" xmlns="http://www.w3.org/2000/svg" xmlns:xlink="http://www.w3.org/1999/xlink" width="21" height="21" viewBox="0 0 21 21">
<path fill="#333" d="M18.986 10c-0.249-4.296-3.689-7.736-7.986-7.986v1.986h-1v-1.986c-4.296 0.249-7.736 3.689-7.986 7.986h1.986v1h-1.986c0.249 4.296 3.689 7.736 7.986 7.986v-1.986h1v1.986c4.296-0.249 7.736-3.689 7.986-7.986h-1.986v-1h1.986zM10.5 21c-5.799 0-10.5-4.701-10.5-10.5s4.701-10.5 10.5-10.5c5.799 0 10.5 4.701 10.5 10.5s-4.701 10.5-10.5 10.5zM8 8l8-3-3 8-8 3 3-8zM7 14l5-2-3-3-2 5z"></path>
</svg>
