<?xml version="1.0" encoding="utf-8"?>
<!-- Generated by IcoMoon.io -->
<!DOCTYPE svg PUBLIC "-//W3C//DTD SVG 1.1//EN" "http://www.w3.org/Graphics/SVG/1.1/DTD/svg11.dtd">
<svg version="1.1" xmlns="http://www.w3.org/2000/svg" xmlns:xlink="http://www.w3.org/1999/xlink" width="32" height="32" viewBox="0 0 32 32">
<path fill="#333" d="M12.444 11.333l-7.778-7.778-1.111 1.111 7.778 7.778 1.111-1.111z"></path>
<path fill="#333" d="M4.064 7.111l3.048-3.048-5.079-4.064-2.032 2.032 4.064 5.079z"></path>
<path fill="#333" d="M32 27.27l-4.73 4.73-7.714-7.714 1.419-1.419 6.295 6.295 1.892-1.892-6.201-6.389 1.325-1.325 7.714 7.714z"></path>
<path fill="#333" d="M21.333 14.933l-15.644 17.067-5.689-5.689 17.067-15.644 4.267 4.267z"></path>
<path fill="#333" d="M31.486 5.174c0.332 0.879 0.514 1.831 0.514 2.826 0 4.418-3.582 8-8 8s-8-3.582-8-8c0-4.418 3.582-8 8-8 1.47 0 2.847 0.396 4.030 1.088l-6.131 6.131 3.771 3.771 5.816-5.816z"></path>
</svg>
