<?xml version="1.0" encoding="utf-8"?>
<!-- Generated by IcoMoon.io -->
<!DOCTYPE svg PUBLIC "-//W3C//DTD SVG 1.1//EN" "http://www.w3.org/Graphics/SVG/1.1/DTD/svg11.dtd">
<svg version="1.1" xmlns="http://www.w3.org/2000/svg" xmlns:xlink="http://www.w3.org/1999/xlink" width="32" height="32" viewBox="0 0 32 32">
<path fill="#333" d="M25.32 15.333c0.453 0 0.907 0.040 1.347 0.1v-15.433l-26.667 26.667h15.42c-0.060-0.44-0.1-0.88-0.1-1.333 0-5.52 4.48-10 10-10zM30.273 25.987c0.027-0.213 0.047-0.427 0.047-0.653 0-0.22-0.020-0.44-0.047-0.653l1.407-1.1c0.127-0.1 0.16-0.28 0.080-0.427l-1.333-2.307c-0.080-0.147-0.26-0.2-0.407-0.147l-1.66 0.667c-0.347-0.267-0.72-0.487-1.127-0.653l-0.247-1.767c-0.027-0.16-0.167-0.28-0.333-0.28h-2.667c-0.167 0-0.307 0.12-0.327 0.28l-0.247 1.767c-0.407 0.167-0.78 0.393-1.127 0.653l-1.66-0.667c-0.153-0.060-0.327 0-0.407 0.147l-1.333 2.307c-0.087 0.147-0.047 0.327 0.080 0.427l1.407 1.1c-0.027 0.213-0.047 0.433-0.047 0.653s0.020 0.44 0.047 0.653l-1.407 1.1c-0.127 0.1-0.16 0.28-0.080 0.427l1.333 2.307c0.087 0.147 0.26 0.2 0.407 0.147l1.66-0.667c0.347 0.267 0.72 0.487 1.127 0.653l0.247 1.767c0.027 0.16 0.167 0.28 0.327 0.28h2.667c0.167 0 0.3-0.12 0.327-0.28l0.247-1.767c0.407-0.167 0.78-0.393 1.127-0.653l1.66 0.667c0.153 0.060 0.327 0 0.407-0.147l1.333-2.307c0.087-0.147 0.047-0.327-0.080-0.427l-1.4-1.1zM25.32 27.333c-1.107 0-2-0.893-2-2s0.893-2 2-2 2 0.893 2 2-0.893 2-2 2z"></path>
</svg>
