<?xml version="1.0" encoding="utf-8"?>
<!-- Generated by IcoMoon.io -->
<!DOCTYPE svg PUBLIC "-//W3C//DTD SVG 1.1//EN" "http://www.w3.org/Graphics/SVG/1.1/DTD/svg11.dtd">
<svg version="1.1" xmlns="http://www.w3.org/2000/svg" xmlns:xlink="http://www.w3.org/1999/xlink" width="16" height="16" viewBox="0 0 16 16">
<path fill="#333" d="M4 9h2v-2h-2v2zM4 12h2v-2h-2v2zM5 0h-2v2h2v-2zM7 12h2v-2h-2v2zM7 9h2v-2h-2v2zM14 0v2c0 0.552-0.447 1-1 1h-2c-0.553 0-1-0.448-1-1v-2h-4v2c0 0.552-0.447 1-1 1h-2c-0.553 0-1-0.448-1-1v-2c-1.104 0-2 0.896-2 2v12c0 1.104 0.896 2 2 2h12c1.104 0 2-0.896 2-2v-12c0-1.104-0.896-2-2-2zM14 13c0 0.553-0.447 1-1 1h-10c-0.553 0-1-0.447-1-1v-7c0-0.552 0.447-1 1-1h10c0.553 0 1 0.448 1 1v7zM10 12h2v-2h-2v2zM10 9h2v-2h-2v2zM13 0h-2v2h2v-2z"></path>
</svg>
