<?xml version="1.0" encoding="utf-8"?>
<!-- Generated by IcoMoon.io -->
<!DOCTYPE svg PUBLIC "-//W3C//DTD SVG 1.1//EN" "http://www.w3.org/Graphics/SVG/1.1/DTD/svg11.dtd">
<svg version="1.1" xmlns="http://www.w3.org/2000/svg" xmlns:xlink="http://www.w3.org/1999/xlink" width="32" height="32" viewBox="0 0 32 32">
<path fill="#889cae" d="M22.522 14.183c-0.053-1.889-0.231-3.76-0.606-5.529-1.518 0.429-3.107 0.687-4.71 0.778v5.091c1.738-0.036 3.49-0.15 5.316-0.34z"></path>
<path fill="#889cae" d="M9.521 14.189c1.826 0.19 3.578 0.301 5.316 0.335v-5.077c-1.611-0.071-3.206-0.307-4.729-0.703-0.362 1.745-0.535 3.586-0.587 5.445z"></path>
<path fill="#889cae" d="M14.836 21.804v-3.806c-1.734-0.076-3.481-0.331-5.303-0.769 0.066 1.803 0.245 3.579 0.591 5.274 1.517-0.393 3.107-0.628 4.711-0.699z"></path>
<path fill="#889cae" d="M14.836 31.407v-7.272c-1.426 0.030-2.843 0.139-4.221 0.327 0.806 2.685 2.129 5.084 4.221 6.944z"></path>
<path fill="#889cae" d="M17.207 24.158v7.249c2.067-1.837 3.384-4.201 4.192-6.848-1.371-0.211-2.778-0.345-4.192-0.402z"></path>
<path fill="#889cae" d="M17.207 17.99v3.829c1.597 0.091 3.18 0.348 4.693 0.774 0.361-1.733 0.545-3.553 0.611-5.4-1.821 0.443-3.569 0.71-5.304 0.797z"></path>
<path fill="#889cae" d="M24.084 7.902c0.741 1.837 1.202 3.822 1.359 5.921 1.781-0.251 3.652-0.568 5.662-0.951-0.546-2.638-1.759-5.030-3.453-6.99-1.083 0.814-2.286 1.487-3.568 2.020z"></path>
<path fill="#889cae" d="M19.038 0.844c1.799 1.565 3.254 3.413 4.325 5.486 1.3-0.28 2.552-0.634 3.729-1.063-2.135-2.219-4.924-3.798-8.054-4.423z"></path>
<path fill="#889cae" d="M21.401 6.692c-0.752-2.363-1.951-4.462-3.799-6.064-0.131-0.013-0.263-0.025-0.396-0.035v6.501c1.415-0.057 2.823-0.191 4.195-0.402z"></path>
<path fill="#889cae" d="M31.429 16.051c0-0.675-0.043-1.341-0.126-1.993-2.069 0.918-3.991 1.678-5.817 2.279-0.096 2.458-0.589 4.812-1.433 7 1.464 0.606 2.827 1.394 4.026 2.367 2.097-2.649 3.35-6.004 3.35-9.653z"></path>
<path fill="#889cae" d="M0.938 12.874c2.010 0.386 3.881 0.705 5.662 0.956 0.152-2.050 0.595-3.991 1.305-5.792-1.334-0.514-2.58-1.165-3.691-1.947-1.601 1.92-2.749 4.237-3.276 6.783z"></path>
<path fill="#889cae" d="M8.616 6.455c1.077-2.123 2.554-4.015 4.389-5.61-3.202 0.639-6.046 2.277-8.2 4.577 1.197 0.423 2.478 0.768 3.811 1.033z"></path>
<path fill="#889cae" d="M14.44 0.628c-1.873 1.624-3.079 3.758-3.829 6.16 1.38 0.188 2.798 0.298 4.225 0.328v-6.524c-0.132 0.010-0.264 0.022-0.396 0.035z"></path>
<path fill="#889cae" d="M0.739 14.067c-0.082 0.65-0.125 1.312-0.125 1.984 0 3.544 1.182 6.811 3.171 9.423 1.224-0.93 2.631-1.689 4.152-2.272-0.807-2.137-1.281-4.432-1.379-6.824-1.827-0.603-3.75-1.372-5.82-2.31z"></path>
<path fill="#889cae" d="M18.612 31.336c3.595-0.612 6.766-2.478 9.055-5.134-1.34-0.527-2.788-0.953-4.3-1.28-1.162 2.41-2.77 4.581-4.755 6.413z"></path>
<path fill="#889cae" d="M13.431 31.336c-2.018-1.865-3.648-4.078-4.815-6.539-1.546 0.308-3.021 0.722-4.379 1.242 2.298 2.743 5.525 4.672 9.193 5.297z"></path>
</svg>
