<?xml version="1.0" encoding="utf-8"?>
<!-- Generated by IcoMoon.io -->
<!DOCTYPE svg PUBLIC "-//W3C//DTD SVG 1.1//EN" "http://www.w3.org/Graphics/SVG/1.1/DTD/svg11.dtd">
<svg version="1.1" xmlns="http://www.w3.org/2000/svg" xmlns:xlink="http://www.w3.org/1999/xlink" width="32" height="32" viewBox="0 0 32 32">
<path fill="#889cae" d="M17.8 24c0 2.574-0.35 3.905-0.821 4.894-0.445 0.97-1.125 1.783-2.022 3.073 0.345 0.022 0.692 0.033 1.042 0.033 1.279 0 2.522-0.15 3.714-0.433 0.21-0.343 0.411-0.701 0.599-1.085 0.779-1.637 1.179-3.556 1.179-6.481 0-1.766-0.542-3.456-1.279-5.023 1.149 0.431 2.1 0.954 2.833 1.687 1.764 1.764 2.365 2.995 2.662 4.086 0.287 1 0.333 2.091 0.551 3.528 1.244-1.040 2.327-2.266 3.207-3.635-0.055-0.283-0.119-0.57-0.196-0.865-0.498-1.826-1.488-3.6-3.613-5.725-1.249-1.249-2.827-2.061-4.456-2.647 1.117-0.508 2.16-0.81 3.196-0.81 2.495 0 3.79 0.446 4.772 1.007 0.875 0.485 1.652 1.187 2.752 2.007 0.053-0.529 0.080-1.066 0.080-1.61 0-1.087-0.108-2.148-0.315-3.174-0.219-0.146-0.446-0.289-0.685-0.429-1.643-0.939-3.598-1.493-6.603-1.493-1.766 0-3.456 0.542-5.023 1.279 0.431-1.149 0.954-2.1 1.687-2.833 1.764-1.764 2.995-2.365 4.086-2.662 0.985-0.282 2.057-0.331 3.461-0.541-0.972-1.242-2.124-2.337-3.417-3.246-0.331 0.061-0.669 0.134-1.015 0.225-1.826 0.498-3.6 1.488-5.725 3.613-1.249 1.249-2.061 2.827-2.647 4.456-0.508-1.117-0.81-2.16-0.81-3.196 0-2.494 0.446-3.79 1.007-4.772 0.531-0.958 1.321-1.798 2.242-3.073-0.732-0.103-1.481-0.156-2.242-0.156-0.818 0-1.622 0.061-2.408 0.18-0.274 0.379-0.543 0.778-0.799 1.217-0.939 1.643-1.493 3.598-1.493 6.603 0 1.766 0.542 3.456 1.279 5.023-1.149-0.431-2.1-0.954-2.833-1.687-1.82-1.82-2.514-3.009-2.88-4.041-0.391-1.053-0.474-2.166-0.788-3.848-1.206 0.954-2.271 2.078-3.159 3.336 0.117 0.572 0.262 1.149 0.467 1.747 0.606 1.708 1.68 3.348 3.749 5.417 1.249 1.249 2.827 2.061 4.456 2.647-1.117 0.508-2.16 0.81-3.196 0.81-2.574 0-3.905-0.35-4.894-0.821-1.054-0.483-1.921-1.243-3.416-2.257-0.057 0.55-0.087 1.109-0.087 1.674 0 1.012 0.094 2.002 0.274 2.962 0.511 0.34 1.044 0.663 1.642 0.955 1.637 0.779 3.556 1.179 6.481 1.179 1.766 0 3.456-0.542 5.023-1.279-0.431 1.149-0.954 2.1-1.687 2.833-1.82 1.82-3.009 2.514-4.041 2.88-1.066 0.396-2.193 0.476-3.911 0.8 1.019 1.205 2.214 2.257 3.544 3.117 0.525-0.112 1.054-0.249 1.602-0.437 1.708-0.606 3.348-1.68 5.417-3.749 1.249-1.249 2.061-2.827 2.647-4.456 0.508 1.117 0.81 2.16 0.81 3.196z"></path>
</svg>
