<?xml version="1.0" encoding="utf-8"?>
<!-- Generated by IcoMoon.io -->
<!DOCTYPE svg PUBLIC "-//W3C//DTD SVG 1.1//EN" "http://www.w3.org/Graphics/SVG/1.1/DTD/svg11.dtd">
<svg version="1.1" xmlns="http://www.w3.org/2000/svg" xmlns:xlink="http://www.w3.org/1999/xlink" width="16" height="16" viewBox="0 0 16 16">
<path fill="#333" d="M8 14.5c-3.59 0-6.5-2.91-6.5-6.5s2.91-6.5 6.5-6.5c3.59 0 6.5 2.91 6.5 6.5 0 1 1.5 1 1.5 0 0-4.5-3.582-8-8-8s-8 3.582-8 8c0 4.418 3 8 8 8v-1.5z"></path>
<path fill="#333" d="M11.894 4.124l0.004-0.004c-0.996-1.001-2.375-1.62-3.898-1.62-3.038 0-5.5 2.462-5.5 5.5s2.462 5.5 5.5 5.5v-1.5c-2.209 0-4-1.791-4-4s1.791-4 4-4c1.080 0 2.088 0.428 2.835 1.178l0.002-0.002c0.137 0.181 0.355 0.299 0.6 0.299 0.416 0 0.752-0.337 0.752-0.753 0-0.244-0.116-0.461-0.296-0.598z"></path>
<path fill="#333" d="M8 6.5c-0.828 0-1.5 0.672-1.5 1.5s0.672 1.5 1.5 1.5v1.5c-1.657 0-3-1.343-3-3s1.343-3 3-3c0.414 0 0.75 0.336 0.75 0.75s-0.336 0.75-0.75 0.75z"></path>
</svg>
