<?xml version="1.0" encoding="utf-8"?>
<!-- Generated by IcoMoon.io -->
<!DOCTYPE svg PUBLIC "-//W3C//DTD SVG 1.1//EN" "http://www.w3.org/Graphics/SVG/1.1/DTD/svg11.dtd">
<svg version="1.1" xmlns="http://www.w3.org/2000/svg" xmlns:xlink="http://www.w3.org/1999/xlink" width="32" height="32" viewBox="0 0 32 32">
<path fill="#333" d="M25.162 27.403l4.324 4.324 2.514-2.514-4.324-4.324-2.514 2.514z"></path>
<path fill="#333" d="M14.222 26.667v0c-6.873 0-12.444-5.572-12.444-12.444s5.572-12.444 12.444-12.444c6.873 0 12.444 5.572 12.444 12.444s-5.572 12.444-12.444 12.444v0zM14.222 28.444v0c7.855 0 14.222-6.367 14.222-14.222s-6.367-14.222-14.222-14.222c-7.855 0-14.222 6.367-14.222 14.222s6.367 14.222 14.222 14.222v0z"></path>
<path fill="#333" d="M8.368 14.743l4.494 4.494h-2.514l11.159-11.159 2.514 2.514-12.417 12.417-7.008-7.008 2.514-2.514 1.257 1.257z"></path>
</svg>
