<?xml version="1.0" encoding="utf-8"?>
<!-- Generated by IcoMoon.io -->
<!DOCTYPE svg PUBLIC "-//W3C//DTD SVG 1.1//EN" "http://www.w3.org/Graphics/SVG/1.1/DTD/svg11.dtd">
<svg version="1.1" xmlns="http://www.w3.org/2000/svg" xmlns:xlink="http://www.w3.org/1999/xlink" width="32" height="32" viewBox="0 0 32 32">
<path fill="#333" d="M16.001 0c2.174 0 4.248 0.422 6.222 1.267s3.674 1.981 5.102 3.409c1.428 1.428 2.564 3.129 3.409 5.102s1.267 4.047 1.267 6.222c0 2.174-0.422 4.248-1.267 6.222s-1.981 3.674-3.409 5.102c-1.428 1.428-3.129 2.564-5.102 3.409s-4.047 1.267-6.222 1.267c-2.174 0-4.248-0.422-6.222-1.267s-3.674-1.981-5.102-3.409c-1.428-1.428-2.564-3.129-3.409-5.102s-1.267-4.047-1.267-6.222c0-2.174 0.422-4.248 1.267-6.222s1.981-3.674 3.409-5.102c1.428-1.428 3.129-2.564 5.102-3.409s4.047-1.267 6.222-1.267v0zM16.001 2.462c-1.833 0-3.586 0.358-5.259 1.075s-3.112 1.679-4.319 2.885c-1.207 1.207-2.168 2.646-2.885 4.319s-1.075 3.426-1.075 5.259c0 1.833 0.358 3.586 1.075 5.259s1.679 3.112 2.885 4.319c1.207 1.207 2.646 2.168 4.319 2.885s3.426 1.075 5.259 1.075c1.833 0 3.586-0.358 5.259-1.075s3.112-1.679 4.319-2.885c1.207-1.207 2.168-2.646 2.885-4.319s1.075-3.426 1.075-5.259c0-1.833-0.358-3.586-1.075-5.259s-1.679-3.112-2.885-4.319c-1.207-1.207-2.646-2.168-4.319-2.885s-3.426-1.075-5.259-1.075v0zM17.231 17.231h5.908c0.408 0 0.756-0.12 1.044-0.361s0.433-0.53 0.433-0.87c0-0.34-0.144-0.63-0.433-0.87s-0.637-0.361-1.044-0.361h-5.908v-5.908c0-0.408-0.12-0.756-0.361-1.044s-0.53-0.433-0.87-0.433c-0.34 0-0.63 0.144-0.87 0.433s-0.361 0.637-0.361 1.044v5.908h-5.908c-0.408 0-0.756 0.12-1.044 0.361s-0.433 0.53-0.433 0.87c0 0.34 0.144 0.63 0.433 0.87s0.637 0.361 1.044 0.361h5.908v5.908c0 0.408 0.12 0.756 0.361 1.044s0.53 0.433 0.87 0.433c0.34 0 0.63-0.144 0.87-0.433s0.361-0.637 0.361-1.044v-5.908z"></path>
</svg>
