<?xml version="1.0" encoding="utf-8"?>
<!-- Generated by IcoMoon.io -->
<!DOCTYPE svg PUBLIC "-//W3C//DTD SVG 1.1//EN" "http://www.w3.org/Graphics/SVG/1.1/DTD/svg11.dtd">
<svg version="1.1" xmlns="http://www.w3.org/2000/svg" xmlns:xlink="http://www.w3.org/1999/xlink" width="16" height="16" viewBox="0 0 16 16">
<path fill="#657482" d="M1.007 0c-0.556 0-1.007 0.445-1.007 1.001v13.998c0 0.553 0.449 1.001 1.007 1.001h12.985c0.556 0 1.007-0.445 1.007-1.001v-13.998c0-0.553-0.449-1.001-1.007-1.001h-12.985zM14 15h-13v-14h13v14zM4 7h7v1h-7v-1zM4 9h5v1h-5v-1zM4 11h3v1h-3v-1zM4 5h7v1h-7v-1zM4 3h7v1h-7v-1z"></path>
</svg>
