<?xml version="1.0" encoding="utf-8"?>
<!-- Generated by IcoMoon.io -->
<!DOCTYPE svg PUBLIC "-//W3C//DTD SVG 1.1//EN" "http://www.w3.org/Graphics/SVG/1.1/DTD/svg11.dtd">
<svg version="1.1" xmlns="http://www.w3.org/2000/svg" xmlns:xlink="http://www.w3.org/1999/xlink" width="16" height="16" viewBox="0 0 16 16">
<path fill="#657482" d="M13.003 9.129c-0.203-0.2-0.654-0.306-1.34-0.315-0.464-0.005-1.023 0.036-1.611 0.118-0.263-0.152-0.535-0.317-0.747-0.516-0.573-0.535-1.051-1.277-1.349-2.094 0.019-0.076 0.036-0.143 0.051-0.212 0 0 0.323-1.833 0.237-2.452-0.012-0.085-0.019-0.11-0.042-0.176l-0.028-0.072c-0.088-0.202-0.26-0.417-0.53-0.405l-0.163-0.005c-0.301 0-0.546 0.154-0.61 0.384-0.196 0.721 0.006 1.8 0.372 3.198l-0.094 0.228c-0.262 0.639-0.59 1.282-0.88 1.849l-0.038 0.074c-0.305 0.596-0.581 1.102-0.832 1.531l-0.259 0.137c-0.019 0.010-0.462 0.245-0.566 0.307-0.882 0.527-1.467 1.125-1.564 1.6-0.031 0.151-0.008 0.345 0.149 0.435l0.25 0.126c0.109 0.054 0.223 0.082 0.34 0.082 0.629 0 1.358-0.783 2.363-2.537 1.161-0.378 2.482-0.692 3.64-0.865 0.883 0.497 1.968 0.842 2.653 0.842 0.122 0 0.227-0.012 0.312-0.034 0.131-0.035 0.242-0.11 0.31-0.211 0.133-0.2 0.16-0.476 0.124-0.758-0.011-0.084-0.078-0.187-0.15-0.258v0zM3.615 12.474c0.115-0.313 0.568-0.933 1.239-1.483 0.042-0.034 0.146-0.132 0.241-0.222-0.702 1.119-1.171 1.565-1.48 1.705v0zM7.589 3.324c0.202 0 0.317 0.509 0.327 0.987s-0.102 0.813-0.241 1.060c-0.115-0.367-0.17-0.946-0.17-1.324 0 0-0.008-0.723 0.084-0.723v0 0zM6.403 9.844c0.141-0.252 0.287-0.518 0.437-0.799 0.365-0.69 0.595-1.229 0.767-1.673 0.341 0.621 0.766 1.149 1.266 1.571 0.062 0.053 0.128 0.106 0.198 0.159-1.016 0.201-1.894 0.445-2.667 0.743v0 0zM12.808 9.787c-0.062 0.039-0.239 0.061-0.353 0.061-0.368 0-0.823-0.168-1.461-0.442 0.245-0.018 0.47-0.027 0.672-0.027 0.369 0 0.478-0.002 0.839 0.090s0.365 0.279 0.304 0.318v0 0z"></path>
<path fill="#657482" d="M14.341 3.579c-0.347-0.473-0.831-1.027-1.362-1.558s-1.085-1.015-1.558-1.362c-0.806-0.591-1.197-0.659-1.421-0.659h-7.75c-0.689 0-1.25 0.561-1.25 1.25v13.5c0 0.689 0.561 1.25 1.25 1.25h11.5c0.689 0 1.25-0.561 1.25-1.25v-9.75c0-0.224-0.068-0.615-0.659-1.421v0 0zM12.271 2.729c0.48 0.48 0.856 0.912 1.134 1.271h-2.406v-2.405c0.359 0.278 0.792 0.654 1.271 1.134v0 0zM14 14.75c0 0.136-0.114 0.25-0.25 0.25h-11.5c-0.135 0-0.25-0.114-0.25-0.25v-13.5c0-0.135 0.115-0.25 0.25-0.25 0 0 7.749-0 7.75 0v3.5c0 0.276 0.224 0.5 0.5 0.5h3.5v9.75z"></path>
</svg>
