<?xml version="1.0" encoding="utf-8"?>
<!-- Generated by IcoMoon.io -->
<!DOCTYPE svg PUBLIC "-//W3C//DTD SVG 1.1//EN" "http://www.w3.org/Graphics/SVG/1.1/DTD/svg11.dtd">
<svg version="1.1" xmlns="http://www.w3.org/2000/svg" xmlns:xlink="http://www.w3.org/1999/xlink" width="40" height="40" viewBox="0 0 40 40">
<path fill="#333" d="M7 21v11c0 0.561 0.897 1 2 1h17.003c1.106 0 1.997 0.895 1.997 2 0 1.112-0.891 2-1.991 2h-18.009c-2.964 0-5-2.007-5-4v-21h4v5h6.003c1.102 0 1.997 0.895 1.997 2 0 1.112-0.894 2-1.997 2h-6.003zM0 2c0-1.104 0.887-2 2-2h6.001c1.104 0 2 0.887 2 2v6.001c0 1.104-0.887 2-2 2h-6.001c-1.104 0-2-0.887-2-2v-6.001zM17 16c0-1.104 0.887-2 2-2h6.001c1.104 0 2 0.887 2 2v6.001c0 1.104-0.887 2-2 2h-6.001c-1.104 0-2-0.887-2-2v-6.001zM30 32c0-1.104 0.887-2 2-2h6.001c1.104 0 2 0.887 2 2v6.001c0 1.104-0.887 2-2 2h-6.001c-1.104 0-2-0.887-2-2v-6.001z"></path>
</svg>
