<?xml version="1.0" encoding="utf-8"?>
<!-- Generated by IcoMoon.io -->
<!DOCTYPE svg PUBLIC "-//W3C//DTD SVG 1.1//EN" "http://www.w3.org/Graphics/SVG/1.1/DTD/svg11.dtd">
<svg version="1.1" xmlns="http://www.w3.org/2000/svg" xmlns:xlink="http://www.w3.org/1999/xlink" width="16" height="16" viewBox="0 0 16 16">
<path fill="#657482" d="M14.341 3.579c-0.347-0.473-0.831-1.027-1.362-1.558s-1.085-1.015-1.558-1.362c-0.806-0.591-1.197-0.659-1.421-0.659h-7.75c-0.689 0-1.25 0.561-1.25 1.25v13.5c0 0.689 0.561 1.25 1.25 1.25h11.5c0.689 0 1.25-0.561 1.25-1.25v-9.75c0-0.224-0.068-0.615-0.659-1.421v0 0zM12.271 2.729c0.48 0.48 0.856 0.912 1.134 1.271h-2.406v-2.405c0.359 0.278 0.792 0.654 1.271 1.134v0 0zM14 14.75c0 0.136-0.114 0.25-0.25 0.25h-11.5c-0.135 0-0.25-0.114-0.25-0.25v-13.5c0-0.135 0.115-0.25 0.25-0.25 0 0 7.749-0 7.75 0v3.5c0 0.276 0.224 0.5 0.5 0.5h3.5v9.75z"></path>
<path fill="#657482" d="M6 7.231h-1v-1.231h3.032c0.824 0 1.362 0.042 1.612 0.126 0.385 0.126 0.707 0.399 0.966 0.821s0.389 0.966 0.389 1.633c0 0.515-0.075 0.948-0.224 1.299s-0.34 0.626-0.57 0.827c-0.23 0.2-0.465 0.333-0.703 0.398-0.324 0.080-0.792 0.12-1.406 0.12l-0.525-0.003v2.78h-1.571v-6.769zM7.571 7.231v2.567h0.631c0.454 0 1.401 0 1.401-1.29s-1.060-1.277-1.475-1.277h-0.557z"></path>
</svg>
