<?xml version="1.0" encoding="utf-8"?>
<!-- Generated by IcoMoon.io -->
<!DOCTYPE svg PUBLIC "-//W3C//DTD SVG 1.1//EN" "http://www.w3.org/Graphics/SVG/1.1/DTD/svg11.dtd">
<svg version="1.1" xmlns="http://www.w3.org/2000/svg" xmlns:xlink="http://www.w3.org/1999/xlink" width="16" height="16" viewBox="0 0 16 16">
<path fill="#657482" d="M1.007 0c-0.556 0-1.007 0.445-1.007 1.001v13.998c0 0.553 0.449 1.001 1.007 1.001h12.985c0.556 0 1.007-0.445 1.007-1.001v-13.998c0-0.553-0.449-1.001-1.007-1.001h-12.985zM14 15h-13v-14h13v14z"></path>
<path fill="#657482" d="M8 6v2h2v-2h-2zM6 4h6v6h-6v-6z"></path>
<path fill="#657482" d="M9 1h1v3h-1v-3z"></path>
<path fill="#657482" d="M1 6h6v1h-6v-1z"></path>
<path fill="#657482" d="M9 9h1v6h-1v-6z"></path>
</svg>
