<?xml version="1.0" encoding="utf-8"?>
<!-- Generated by IcoMoon.io -->
<!DOCTYPE svg PUBLIC "-//W3C//DTD SVG 1.1//EN" "http://www.w3.org/Graphics/SVG/1.1/DTD/svg11.dtd">
<svg version="1.1" xmlns="http://www.w3.org/2000/svg" xmlns:xlink="http://www.w3.org/1999/xlink" width="32" height="32" viewBox="0 0 32 32">
<path fill="#333" d="M28.155 4.604c0-2.518-2.040-4.558-4.558-4.558s-4.558 2.040-4.558 4.558c0 1.825 1.079 3.388 2.629 4.116-0.156 3.008-2.412 4.030-6.334 5.5-1.652 0.621-3.474 1.309-5.031 2.344v-7.827c1.567-0.722 2.659-2.296 2.659-4.133 0-2.518-2.040-4.558-4.558-4.558s-4.558 2.040-4.558 4.558c0 1.837 1.094 3.411 2.659 4.133v14.528c-1.567 0.72-2.659 2.294-2.659 4.131 0 2.518 2.040 4.558 4.558 4.558s4.558-2.042 4.558-4.558c0-1.825-1.079-3.388-2.629-4.116 0.156-3.007 2.414-4.030 6.334-5.5 3.856-1.447 8.625-3.25 8.813-9.033 1.575-0.718 2.676-2.298 2.676-4.142zM8.403 1.974c1.451 0 2.629 1.176 2.629 2.631 0 1.451-1.178 2.63-2.629 2.63-1.453 0-2.629-1.179-2.629-2.63 0-1.455 1.176-2.631 2.629-2.631zM8.403 30.026c-1.455 0-2.63-1.179-2.63-2.631 0-1.455 1.176-2.631 2.63-2.631 1.451 0 2.629 1.176 2.629 2.631 0 1.451-1.178 2.631-2.629 2.631zM23.597 7.235c-1.455 0-2.631-1.179-2.631-2.631 0-1.455 1.176-2.631 2.631-2.631 1.451 0 2.629 1.176 2.629 2.631 0 1.451-1.178 2.63-2.629 2.63z"></path>
</svg>
