<?xml version="1.0" encoding="utf-8"?>
<!-- Generated by IcoMoon.io -->
<!DOCTYPE svg PUBLIC "-//W3C//DTD SVG 1.1//EN" "http://www.w3.org/Graphics/SVG/1.1/DTD/svg11.dtd">
<svg version="1.1" xmlns="http://www.w3.org/2000/svg" xmlns:xlink="http://www.w3.org/1999/xlink" width="34" height="32" viewBox="0 0 34 32">
<path fill="#333" d="M20.717 15.209c0.176 0.281 0.264 0.641 0.264 1.080s-0.088 0.808-0.264 1.107c-0.176 0.281-0.422 0.509-0.738 0.685-0.299 0.176-0.641 0.299-1.028 0.369s-0.791 0.105-1.212 0.105h-1.897v-4.401h1.976c0.404 0 0.791 0.026 1.16 0.079 0.386 0.053 0.729 0.158 1.028 0.316s0.536 0.378 0.712 0.659z"></path>
<path fill="#333" d="M33.882 7.529h-33.882l1.882 24.471h30.118l1.882-24.471zM25.487 16.264c0 1.089-0.202 2.012-0.606 2.767-0.404 0.738-0.949 1.335-1.634 1.792s-1.476 0.791-2.372 1.001c-0.896 0.211-1.827 0.316-2.793 0.316h-2.24v7.036h-4.506v-18.658h6.852c1.019 0 1.968 0.105 2.846 0.316 0.896 0.193 1.669 0.518 2.319 0.975 0.668 0.439 1.186 1.028 1.555 1.766 0.386 0.72 0.58 1.616 0.58 2.688z"></path>
<path fill="#333" d="M1.882 5.647h30.118l-1.882-3.765h-13.176l-1.882-1.882h-11.294l-1.882 5.647z"></path>
</svg>
