<?xml version="1.0" encoding="utf-8"?>
<!-- Generated by IcoMoon.io -->
<!DOCTYPE svg PUBLIC "-//W3C//DTD SVG 1.1//EN" "http://www.w3.org/Graphics/SVG/1.1/DTD/svg11.dtd">
<svg version="1.1" xmlns="http://www.w3.org/2000/svg" xmlns:xlink="http://www.w3.org/1999/xlink" width="32" height="32" viewBox="0 0 32 32">
<path fill="#333" d="M15.882 0.235c-8.772 0-15.882 7.111-15.882 15.882s7.111 15.882 15.882 15.882c8.772 0 15.882-7.111 15.882-15.882s-7.111-15.882-15.882-15.882zM24.869 21.412c0.284-1.339 0.463-2.759 0.521-4.235h4.217c-0.11 1.462-0.451 2.882-1.015 4.235h-3.723zM6.896 10.824c-0.284 1.339-0.463 2.759-0.521 4.235h-4.217c0.11-1.462 0.451-2.882 1.015-4.235h3.723zM22.7 10.824c0.318 1.355 0.509 2.775 0.572 4.235h-6.33v-4.235h5.759zM16.941 8.706v-6.199c0.483 0.14 0.961 0.376 1.43 0.707 0.88 0.62 1.721 1.575 2.433 2.762 0.492 0.821 0.918 1.734 1.274 2.729h-5.137zM10.96 5.977c0.712-1.187 1.554-2.142 2.433-2.762 0.469-0.331 0.948-0.567 1.43-0.707v6.199h-5.137c0.356-0.995 0.781-1.909 1.274-2.729zM14.823 10.824v4.235h-6.33c0.062-1.461 0.254-2.88 0.572-4.235h5.759zM3.173 21.412c-0.564-1.353-0.905-2.773-1.015-4.235h4.217c0.058 1.476 0.237 2.897 0.521 4.235h-3.723zM8.493 17.177h6.33v4.235h-5.759c-0.318-1.355-0.509-2.775-0.572-4.235zM14.823 23.529v6.199c-0.483-0.14-0.961-0.376-1.43-0.707-0.88-0.62-1.721-1.575-2.433-2.762-0.492-0.821-0.918-1.734-1.274-2.729h5.137zM20.805 26.259c-0.712 1.187-1.554 2.142-2.433 2.762-0.469 0.331-0.948 0.567-1.43 0.707v-6.199h5.137c-0.356 0.995-0.781 1.909-1.274 2.729zM16.941 21.412v-4.235h6.33c-0.062 1.461-0.254 2.88-0.572 4.235h-5.758zM25.39 15.059c-0.058-1.476-0.238-2.897-0.521-4.235h3.723c0.564 1.353 0.905 2.773 1.015 4.235h-4.217zM27.485 8.706h-3.173c-0.617-1.944-1.468-3.649-2.492-5.011 1.407 0.673 2.682 1.576 3.796 2.689 0.711 0.711 1.335 1.487 1.87 2.321zM6.149 6.385c1.114-1.114 2.388-2.016 3.796-2.689-1.024 1.361-1.875 3.066-2.492 5.011h-3.173c0.534-0.834 1.159-1.611 1.87-2.321zM4.28 23.529h3.173c0.617 1.944 1.468 3.649 2.492 5.011-1.407-0.673-2.682-1.576-3.796-2.689-0.711-0.711-1.336-1.487-1.87-2.321zM25.615 25.851c-1.114 1.114-2.388 2.016-3.796 2.689 1.024-1.361 1.875-3.066 2.492-5.011h3.173c-0.534 0.834-1.159 1.611-1.87 2.321z"></path>
</svg>
