<?xml version="1.0" encoding="utf-8"?>
<!-- Generated by IcoMoon.io -->
<!DOCTYPE svg PUBLIC "-//W3C//DTD SVG 1.1//EN" "http://www.w3.org/Graphics/SVG/1.1/DTD/svg11.dtd">
<svg version="1.1" xmlns="http://www.w3.org/2000/svg" xmlns:xlink="http://www.w3.org/1999/xlink" width="27" height="27" viewBox="0 0 27 27">
<path fill="#333" d="M17 15h8c1.105 0 2 0.895 2 2v8c0 1.105-0.895 2-2 2h-8c-1.105 0-2-0.895-2-2v-8c0-1.105 0.895-2 2-2z"></path>
<path fill="#333" d="M2 15h8c1.105 0 2 0.895 2 2v8c0 1.105-0.895 2-2 2h-8c-1.105 0-2-0.895-2-2v-8c0-1.105 0.895-2 2-2z"></path>
<path fill="#333" d="M17 0h8c1.105 0 2 0.895 2 2v8c0 1.105-0.895 2-2 2h-8c-1.105 0-2-0.895-2-2v-8c0-1.105 0.895-2 2-2z"></path>
<path fill="#333" d="M2 0h8c1.105 0 2 0.895 2 2v8c0 1.105-0.895 2-2 2h-8c-1.105 0-2-0.895-2-2v-8c0-1.105 0.895-2 2-2z"></path>
</svg>
