<?xml version="1.0" encoding="utf-8"?>
<!-- Generated by IcoMoon.io -->
<!DOCTYPE svg PUBLIC "-//W3C//DTD SVG 1.1//EN" "http://www.w3.org/Graphics/SVG/1.1/DTD/svg11.dtd">
<svg version="1.1" xmlns="http://www.w3.org/2000/svg" xmlns:xlink="http://www.w3.org/1999/xlink" width="32" height="32" viewBox="0 0 32 32">
<path fill="#333" d="M16 10.667c0 2.946-2.388 5.333-5.333 5.333s-5.333-2.388-5.333-5.333c0-2.946 2.388-5.333 5.333-5.333s5.333 2.388 5.333 5.333z"></path>
<path fill="#333" d="M21.333 26.667c0-4.938-4.776-8.889-10.667-8.889s-10.667 3.951-10.667 8.889c7.758 0 15.515 0 21.333 0z"></path>
<path fill="#333" d="M26.756 13.333c0 2.455-1.99 4.444-4.444 4.444s-4.444-1.99-4.444-4.444c0-2.455 1.99-4.444 4.444-4.444s4.444 1.99 4.444 4.444z"></path>
<path fill="#333" d="M20.958 19.764c0.69-0.136 1.411-0.209 2.154-0.209 4.909 0 8.889 3.16 8.889 7.111-4.849 0-11.313 0-17.778 0 3.911 0 7.564 0 10.667 0 0-2.797-1.532-5.277-3.931-6.902z"></path>
</svg>
