<?xml version="1.0" encoding="utf-8"?>
<!-- Generated by IcoMoon.io -->
<!DOCTYPE svg PUBLIC "-//W3C//DTD SVG 1.1//EN" "http://www.w3.org/Graphics/SVG/1.1/DTD/svg11.dtd">
<svg version="1.1" xmlns="http://www.w3.org/2000/svg" xmlns:xlink="http://www.w3.org/1999/xlink" width="41" height="32" viewBox="0 0 41 32">
<path fill="#333" d="M22.518 30.302l-11.649-11.638c-0.904-0.903-0.904-2.338-0.018-3.224l13.846-13.833c0.872-0.871 2.637-1.603 3.911-1.603h10.15c1.292 0 2.307 1.015 2.307 2.268v10.397c0 1.242-0.727 2.997-1.623 3.897l-13.68 13.728c-0.896 0.899-2.349 0.903-3.245 0.008zM35.15 11.555c1.785-1.785 1.785-4.68 0-6.465s-4.68-1.785-6.465 0c-1.785 1.785-1.785 4.68 0 6.465s4.68 1.785 6.465 0v0z"></path>
<path fill="#333" d="M16.19 29.786l-0.449 0.477c-0.876 0.93-2.262 0.921-3.124 0.010l-10.959-11.581c-0.843-0.891-0.855-2.395 0.015-3.314l12.973-13.709c0.883-0.933 2.607-1.665 3.88-1.665h1.729l-16.124 17.039 12.058 12.743z"></path>
</svg>
