<?xml version="1.0" encoding="utf-8"?>
<!-- Generated by IcoMoon.io -->
<!DOCTYPE svg PUBLIC "-//W3C//DTD SVG 1.1//EN" "http://www.w3.org/Graphics/SVG/1.1/DTD/svg11.dtd">
<svg version="1.1" xmlns="http://www.w3.org/2000/svg" xmlns:xlink="http://www.w3.org/1999/xlink" width="16" height="16" viewBox="0 0 16 16">
<path fill="#333" d="M16 8c0-4.418-3.582-8-8-8s-8 3.582-8 8c0 4.418 3.582 8 8 8s8-3.582 8-8zM1 8c0-3.866 3.134-7 7-7s7 3.134 7 7c0 3.866-3.134 7-7 7s-7-3.134-7-7z"></path>
<path fill="#333" d="M6.979 12.295c0-0.161 0.021-0.297 0.063-0.409s0.099-0.203 0.171-0.273c0.072-0.070 0.157-0.121 0.254-0.152s0.203-0.048 0.317-0.048c0.11 0 0.215 0.016 0.314 0.048s0.185 0.083 0.257 0.152c0.072 0.070 0.129 0.161 0.171 0.273s0.063 0.249 0.063 0.409c0 0.157-0.021 0.291-0.063 0.403s-0.099 0.204-0.171 0.276c-0.072 0.072-0.158 0.125-0.257 0.159s-0.204 0.051-0.314 0.051c-0.114 0-0.22-0.017-0.317-0.051s-0.182-0.087-0.254-0.159c-0.072-0.072-0.129-0.164-0.171-0.276s-0.063-0.246-0.063-0.403zM8.221 10.35c0-0.705 0.163-1.136 0.535-1.481 0.052-0.049 0.106-0.097 0.183-0.166s0.119-0.106 0.155-0.139c0.561-0.504 0.873-0.861 1.144-1.395 0.518-1.022 0.376-2.414-0.591-3.078-1.455-1-3.891-0.502-4.464 1.704l0.968 0.251c0.375-1.446 1.99-1.776 2.93-1.131 0.493 0.339 0.579 1.182 0.265 1.801-0.202 0.399-0.443 0.675-0.92 1.104-0.035 0.031-0.076 0.068-0.153 0.137-0.081 0.072-0.138 0.125-0.196 0.178-0.592 0.548-0.856 1.247-0.856 2.214h1z"></path>
</svg>
