<?xml version="1.0" encoding="utf-8"?>
<!-- Generated by IcoMoon.io -->
<!DOCTYPE svg PUBLIC "-//W3C//DTD SVG 1.1//EN" "http://www.w3.org/Graphics/SVG/1.1/DTD/svg11.dtd">
<svg version="1.1" xmlns="http://www.w3.org/2000/svg" xmlns:xlink="http://www.w3.org/1999/xlink" width="24" height="24" viewBox="0 0 24 24">
<path fill="#333" d="M12 2c-5.523 0-10 4.477-10 10s4.477 10 10 10c5.523 0 10-4.477 10-10s-4.477-10-10-10v0zM11 6c0-0.494 0.506-1 1-1h1c0.494 0 1 0.506 1 1v1c0 0.494-0.506 1-1 1h-1c-0.494 0-1-0.506-1-1v-1zM15 18h-5v-1h1v-6h-1v-1h4v7h1v1z"></path>
</svg>
