<?xml version="1.0" encoding="utf-8"?>
<!-- Generated by IcoMoon.io -->
<!DOCTYPE svg PUBLIC "-//W3C//DTD SVG 1.1//EN" "http://www.w3.org/Graphics/SVG/1.1/DTD/svg11.dtd">
<svg version="1.1" xmlns="http://www.w3.org/2000/svg" xmlns:xlink="http://www.w3.org/1999/xlink" width="17" height="16" viewBox="0 0 17 16">
<path fill="#333" d="M0 2.651c0.554 0 1.093-0.046 1.616-0.137s0.997-0.244 1.42-0.457c0.423-0.213 0.785-0.488 1.085-0.823s0.496-0.747 0.589-1.234h2.147v16h-2.886v-11.291h-3.971v-2.057zM17.126 16h-7.983c0.011-0.928 0.245-1.739 0.701-2.433s1.080-1.297 1.871-1.809c0.379-0.267 0.774-0.526 1.186-0.776s0.791-0.52 1.136-0.808c0.345-0.288 0.629-0.6 0.852-0.936s0.34-0.723 0.351-1.16c0-0.203-0.025-0.419-0.075-0.648s-0.148-0.443-0.292-0.64c-0.145-0.197-0.345-0.363-0.601-0.496s-0.59-0.2-1.002-0.2c-0.379 0-0.693 0.072-0.944 0.216s-0.451 0.341-0.601 0.592c-0.15 0.251-0.262 0.547-0.334 0.888s-0.114 0.71-0.125 1.104h-1.904c0-0.619 0.086-1.192 0.259-1.721s0.431-0.984 0.777-1.369c0.345-0.384 0.765-0.686 1.261-0.904s1.072-0.328 1.729-0.328c0.713 0 1.308 0.112 1.787 0.336s0.866 0.507 1.161 0.848c0.295 0.341 0.504 0.712 0.626 1.112s0.184 0.782 0.184 1.144c0 0.448-0.072 0.854-0.217 1.216s-0.34 0.696-0.585 1c-0.245 0.304-0.523 0.584-0.835 0.84s-0.635 0.496-0.969 0.72c-0.334 0.224-0.668 0.438-1.002 0.64s-0.643 0.405-0.927 0.608c-0.284 0.203-0.532 0.413-0.743 0.632s-0.356 0.451-0.434 0.696h5.695v1.633z"></path>
</svg>
