<?xml version="1.0" encoding="utf-8"?>
<!-- Generated by IcoMoon.io -->
<!DOCTYPE svg PUBLIC "-//W3C//DTD SVG 1.1//EN" "http://www.w3.org/Graphics/SVG/1.1/DTD/svg11.dtd">
<svg version="1.1" xmlns="http://www.w3.org/2000/svg" xmlns:xlink="http://www.w3.org/1999/xlink" width="32" height="32" viewBox="0 0 32 32">
<path fill="#333" d="M0 5.32v21.36c0 2.915 2.382 5.32 5.32 5.32h21.36c2.915 0 5.32-2.382 5.32-5.32v-21.36c0-2.915-2.382-5.32-5.32-5.32h-21.36c-2.915 0-5.32 2.382-5.32 5.32zM1.778 5.323c0-1.958 1.59-3.545 3.545-3.545h21.354c1.958 0 3.545 1.59 3.545 3.545v21.354c0 1.958-1.59 3.545-3.545 3.545h-21.354c-1.958 0-3.545-1.59-3.545-3.545v-21.354z"></path>
<path fill="#333" d="M3.556 7.122v17.757c0 1.971 1.597 3.566 3.566 3.566h17.757c1.971 0 3.566-1.597 3.566-3.566v-17.757c0-1.971-1.597-3.566-3.566-3.566h-17.757c-1.971 0-3.566 1.597-3.566 3.566zM5.333 7.115c0-0.984 0.81-1.782 1.782-1.782h17.769c0.984 0 1.782 0.81 1.782 1.782v17.769c0 0.984-0.81 1.782-1.782 1.782h-17.769c-0.984 0-1.782-0.81-1.782-1.782v-17.769z"></path>
<path fill="#333" d="M24.889 17.778l-8.889-8.889-8.889 8.889h3.556v5.333h10.667v-5.333h3.556z"></path>
</svg>
