<?xml version="1.0" encoding="utf-8"?>
<!-- Generated by IcoMoon.io -->
<!DOCTYPE svg PUBLIC "-//W3C//DTD SVG 1.1//EN" "http://www.w3.org/Graphics/SVG/1.1/DTD/svg11.dtd">
<svg version="1.1" xmlns="http://www.w3.org/2000/svg" xmlns:xlink="http://www.w3.org/1999/xlink" width="32" height="32" viewBox="0 0 32 32">
<path fill="#333" d="M17.6 17.778h5.511v5.333h-2.683c-0.468 0-0.873 0.398-0.873 0.889 0 0.477 0.391 0.889 0.873 0.889h8.921c0.468 0 0.873-0.398 0.873-0.889 0-0.477-0.391-0.889-0.873-0.889h-2.683v-5.333h3.564c0.96 0 1.77-0.796 1.77-1.778 0-0.989-0.792-1.778-1.77-1.778h-12.63c-0.824-4.057-4.411-7.111-8.711-7.111-4.909 0-8.889 3.98-8.889 8.889s3.98 8.889 8.889 8.889c4.3 0 7.887-3.054 8.711-7.111v0zM3.556 16c0-2.946 2.388-5.333 5.333-5.333s5.333 2.388 5.333 5.333c0 2.946-2.388 5.333-5.333 5.333s-5.333-2.388-5.333-5.333z"></path>
</svg>
