<?xml version="1.0" encoding="utf-8"?>
<!-- Generated by IcoMoon.io -->
<!DOCTYPE svg PUBLIC "-//W3C//DTD SVG 1.1//EN" "http://www.w3.org/Graphics/SVG/1.1/DTD/svg11.dtd">
<svg version="1.1" xmlns="http://www.w3.org/2000/svg" xmlns:xlink="http://www.w3.org/1999/xlink" width="21" height="21" viewBox="0 0 21 21">
<path fill="#333" d="M4.5 6h-0.505c-2.203 0-3.995 1.789-3.995 3.996v4.008c0 2.199 1.789 3.996 3.995 3.996h10.010c2.203 0 3.995-1.789 3.995-3.996v-4.008c0-2.199-1.789-3.996-3.995-3.996h-0.505v-1.494c0-2.488-2.015-4.506-4.5-4.506-2.48 0-4.5 2.017-4.5 4.506v1.494zM6 4.722c0-1.661 1.347-3.008 3-3.008 1.657 0 3 1.338 3 3.008v3.85h-6v-3.85zM9 15c-0.947 0-1.714-0.768-1.714-1.714s0.768-1.714 1.714-1.714c0.947 0 1.714 0.768 1.714 1.714s-0.768 1.714-1.714 1.714z"></path>
</svg>
