<?xml version="1.0" encoding="utf-8"?>
<!-- Generated by IcoMoon.io -->
<!DOCTYPE svg PUBLIC "-//W3C//DTD SVG 1.1//EN" "http://www.w3.org/Graphics/SVG/1.1/DTD/svg11.dtd">
<svg version="1.1" xmlns="http://www.w3.org/2000/svg" xmlns:xlink="http://www.w3.org/1999/xlink" width="16" height="16" viewBox="0 0 16 16">
<path fill="#333" d="M12.008 2.994l1.996-1.996h0.998v0.998l-1.996 1.996-0.998-0.998zM11.010 0h-0.998v1.996h0.998v-1.996zM7.018 4.99h-1.996v0.998h1.996v-0.998zM6.019 1.996v-0.998h0.998l1.996 1.996-0.998 0.998-1.996-1.996zM16 4.99h-1.996v0.998h1.996v-0.998zM11.010 8.982h-0.998v1.996h0.998v-1.996zM15.002 8.982v0.998h-0.998l-1.996-1.996 0.998-0.998 1.996 1.996zM0.25 13.754l9.92-9.92c0.291-0.291 0.767-0.291 1.059 0l0.938 0.938c0.291 0.291 0.291 0.767 0 1.059l-9.92 9.92c-0.291 0.291-0.767 0.291-1.059 0l-0.938-0.938c-0.291-0.291-0.291-0.767 0-1.059v0zM8.515 8.483l2.994-2.994-0.998-0.998-2.994 2.994 0.998 0.998z"></path>
</svg>
