<?xml version="1.0" encoding="utf-8"?>
<!-- Generated by IcoMoon.io -->
<!DOCTYPE svg PUBLIC "-//W3C//DTD SVG 1.1//EN" "http://www.w3.org/Graphics/SVG/1.1/DTD/svg11.dtd">
<svg version="1.1" xmlns="http://www.w3.org/2000/svg" xmlns:xlink="http://www.w3.org/1999/xlink" width="16" height="16" viewBox="0 0 16 16">
<path fill="#333" d="M8.5 3c0 0.276-0.224 0.5-0.5 0.5s-0.5-0.224-0.5-0.5c0-0.276 0.224-0.5 0.5-0.5s0.5 0.224 0.5 0.5z"></path>
<path fill="#333" d="M11.123 4.066c-0.15 0.232-0.46 0.297-0.692 0.147s-0.297-0.46-0.147-0.692 0.46-0.297 0.692-0.147c0.232 0.15 0.297 0.46 0.147 0.692z"></path>
<path fill="#333" d="M12.759 6.376c-0.25 0.117-0.548 0.008-0.664-0.242s-0.008-0.548 0.242-0.665 0.548-0.008 0.664 0.242c0.117 0.25 0.008 0.548-0.242 0.665z"></path>
<path fill="#333" d="M12.88 9.207c-0.273-0.038-0.464-0.291-0.426-0.565s0.291-0.464 0.565-0.426c0.273 0.038 0.464 0.291 0.426 0.565s-0.291 0.464-0.565 0.426z"></path>
<path fill="#333" d="M2.981 8.216c0.273-0.038 0.526 0.152 0.565 0.426s-0.152 0.526-0.426 0.565c-0.273 0.038-0.526-0.152-0.565-0.426s0.152-0.526 0.426-0.565z"></path>
<path fill="#333" d="M3.663 5.47c0.25 0.117 0.359 0.414 0.242 0.665s-0.414 0.359-0.664 0.242-0.359-0.414-0.242-0.665c0.117-0.25 0.414-0.359 0.664-0.242z"></path>
<path fill="#333" d="M5.716 3.521c0.15 0.232 0.085 0.541-0.147 0.692s-0.541 0.085-0.692-0.147-0.085-0.541 0.147-0.692c0.232-0.15 0.541-0.085 0.692 0.147z"></path>
<path fill="#333" d="M8.97 10.254c0.020 0.079 0.030 0.161 0.030 0.246 0 0.552-0.448 1-1 1-0.357 0-0.67-0.187-0.847-0.467-0.097-0.154-0.153-0.337-0.153-0.533 0-0.552 0.448-1 1-1 0.467 0 0.86 0.321 0.97 0.754zM6.235 9.558c-0.15 0.281-0.235 0.602-0.235 0.942 0 1.105 0.895 2 2 2s2-0.895 2-2c0-0.869-0.554-1.609-1.329-1.885l-2.671-2.865 0.235 3.808z"></path>
<path fill="#333" d="M0 8c0-4.418 3.582-8 8-8s8 3.582 8 8c0 4.418-3.582 8-8 8s-8-3.582-8-8zM8 15c3.866 0 7-3.134 7-7s-3.134-7-7-7c-3.866 0-7 3.134-7 7s3.134 7 7 7z"></path>
</svg>
