<?xml version="1.0" encoding="utf-8"?>
<!-- Generated by IcoMoon.io -->
<!DOCTYPE svg PUBLIC "-//W3C//DTD SVG 1.1//EN" "http://www.w3.org/Graphics/SVG/1.1/DTD/svg11.dtd">
<svg version="1.1" xmlns="http://www.w3.org/2000/svg" xmlns:xlink="http://www.w3.org/1999/xlink" width="40" height="40" viewBox="0 0 40 40">
<path fill="#56b381" d="M0 4l23-4v39l-23-4v-31zM2 5.6v27.7l19 3.352v-34.304l-19 3.252z"></path>
<path fill="#56b381" d="M24 28h7v4h-7v-4zM24 21h7v4h-7v-4zM24 14h7v4h-7v-4zM33 28h7v4h-7v-4zM33 21h7v4h-7v-4zM33 14h7v4h-7v-4zM33 7h7v4h-7v-4zM24 7h7v4h-7v-4z"></path>
<path fill="#56b381" d="M9.411 19.651l-3.997-6.661 3.046-0.27 2.588 4.579 2.536-5.032 3.020-0.267-4.015 7.758 4.411 8.242-3.143-0.287-2.861-5.433-2.87 4.91-3.125-0.286 4.411-7.252z"></path>
</svg>
