<?xml version="1.0" encoding="utf-8"?>
<!-- Generated by IcoMoon.io -->
<!DOCTYPE svg PUBLIC "-//W3C//DTD SVG 1.1//EN" "http://www.w3.org/Graphics/SVG/1.1/DTD/svg11.dtd">
<svg version="1.1" xmlns="http://www.w3.org/2000/svg" xmlns:xlink="http://www.w3.org/1999/xlink" width="40" height="40" viewBox="0 0 40 40">
<path fill="#60ba5d" d="M0 4l23-4v39l-23-4v-31zM2 5.6v27.7l19 3.352v-34.304l-19 3.252z"></path>
<path fill="#60ba5d" d="M7 12.888l3.807-0.359c1.443-0.136 2.383-0.147 2.821-0.033 0.673 0.174 1.237 0.639 1.691 1.399 0.454 0.769 0.681 1.793 0.681 3.067 0 0.983-0.131 1.81-0.393 2.481-0.262 0.666-0.594 1.186-0.998 1.559-0.403 0.369-0.813 0.609-1.23 0.721-0.566 0.136-1.386 0.19-2.46 0.165l-1.547-0.036v5.565l-2.372-0.224v-14.306zM9.372 19.347l1.298-0.012c0.935-0.008 1.56-0.094 1.875-0.257 0.315-0.165 0.562-0.421 0.741-0.77 0.179-0.35 0.268-0.755 0.268-1.214 0-0.565-0.126-1.026-0.377-1.38-0.251-0.351-0.569-0.56-0.954-0.628-0.283-0.052-0.852-0.051-1.707 0.002l-1.146 0.072v4.187z"></path>
<path fill="#60ba5d" d="M34 18v-5h-10v-2h10c1.094 0 2 0.847 2 2v5h4l-5 5-5-5h4zM33 24.5l-4.5 4.5-4.5-4.5 4.5-4.5 4.5 4.5z"></path>
</svg>
