<?xml version="1.0" encoding="utf-8"?>
<!-- Generated by IcoMoon.io -->
<!DOCTYPE svg PUBLIC "-//W3C//DTD SVG 1.1//EN" "http://www.w3.org/Graphics/SVG/1.1/DTD/svg11.dtd">
<svg version="1.1" xmlns="http://www.w3.org/2000/svg" xmlns:xlink="http://www.w3.org/1999/xlink" width="40" height="40" viewBox="0 0 40 40">
<path fill="#6481d1" d="M6 13.646l3.027-0.23 2.025 8.596 2.648-8.864 2.754-0.167-3.809 14.032-2.806-0.169-3.839-13.199z"></path>
<path fill="#6481d1" d="M0 4l23-4v39l-23-4v-31zM2 5.6v27.7l19 3.352v-34.304l-19 3.252z"></path>
<path fill="#6481d1" d="M34 18v5.991c0 0.557-0.45 1.009-0.998 1.009h-3.002v-3.005c0-0.54-0.444-0.995-0.991-0.995h-5.009v2l4-0.005 0.009 6.005h-4.009v2h5.009c0.54 0 0.991-0.446 0.991-0.995v-3.005h3.002c1.654 0 2.998-1.349 2.998-3.009v-5.991l4-4-5-5-4 4h-7v2h7l3 3z"></path>
</svg>
