<?xml version="1.0" encoding="utf-8"?>
<!-- Generated by IcoMoon.io -->
<!DOCTYPE svg PUBLIC "-//W3C//DTD SVG 1.1//EN" "http://www.w3.org/Graphics/SVG/1.1/DTD/svg11.dtd">
<svg version="1.1" xmlns="http://www.w3.org/2000/svg" xmlns:xlink="http://www.w3.org/1999/xlink" width="40" height="40" viewBox="0 0 40 40">
<path fill="#5a82bf" d="M0 4l23-4v39l-23-4v-31zM2 5.6v27.7l19 3.352v-34.304l-19 3.252z"></path>
<path fill="#5a82bf" d="M5 13.086l2.181-0.199 1.359 8.218 1.811-8.466 2.378-0.199 1.736 9.054 1.128-9.295 2.405-0.199-2.405 15-2.122-0.195-1.973-9.708-1.966 9.346-2.169-0.199-2.365-13.157z"></path>
<path fill="#5a82bf" d="M24 9h16v2h-16v-2zM24 13h16v2h-16v-2zM24 17h16v2h-16v-2zM24 21h16v2h-16v-2zM24 25h16v2h-16v-2zM24 29h16v2h-16v-2z"></path>
</svg>
