<?xml version="1.0" encoding="utf-8"?>
<!-- Generated by IcoMoon.io -->
<!DOCTYPE svg PUBLIC "-//W3C//DTD SVG 1.1//EN" "http://www.w3.org/Graphics/SVG/1.1/DTD/svg11.dtd">
<svg version="1.1" xmlns="http://www.w3.org/2000/svg" xmlns:xlink="http://www.w3.org/1999/xlink" width="32" height="32" viewBox="0 0 32 32">
<path fill="#333" d="M31.778 6.77c-1.597-1.983-4.577-3.215-7.778-3.215s-6.181 1.232-7.778 3.215c-0.143 0.178-0.222 0.4-0.222 0.629 0-0.229-0.078-0.451-0.222-0.629-1.597-1.983-4.577-3.215-7.778-3.215s-6.182 1.232-7.778 3.215c-0.143 0.178-0.222 0.4-0.222 0.629v20.043c0 0.425 0.267 0.803 0.667 0.945s0.845 0.015 1.111-0.316c1.226-1.523 3.61-2.469 6.222-2.469s4.995 0.946 6.222 2.469c0.194 0.24 0.482 0.373 0.778 0.373h2c0.297 0 0.585-0.132 0.778-0.373 1.226-1.523 3.61-2.469 6.222-2.469s4.995 0.946 6.222 2.469c0.266 0.331 0.711 0.457 1.111 0.316s0.667-0.52 0.667-0.945v-20.043c0-0.229-0.078-0.451-0.222-0.629v0zM14.222 24.889c-1.686-1.036-3.898-1.636-6.222-1.636s-4.536 0.6-6.222 1.636v-17.357c1.326-1.363 3.669-2.199 6.222-2.199s4.897 0.835 6.222 2.199v17.357zM30.222 24.889c-1.686-1.036-3.898-1.636-6.222-1.636s-4.536 0.6-6.222 1.636v-17.357c1.326-1.363 3.669-2.199 6.222-2.199s4.897 0.835 6.222 2.199v17.357z"></path>
<path fill="#333" d="M19.556 10.667h8.889v1.778h-8.889v-1.778z"></path>
<path fill="#333" d="M19.556 14.222h8.889v1.778h-8.889v-1.778z"></path>
<path fill="#333" d="M19.556 17.778h5.333v1.778h-5.333v-1.778z"></path>
<path fill="#333" d="M3.556 10.667h8.889v1.778h-8.889v-1.778z"></path>
<path fill="#333" d="M3.556 14.222h8.889v1.778h-8.889v-1.778z"></path>
<path fill="#333" d="M3.556 17.778h5.333v1.778h-5.333v-1.778z"></path>
</svg>
