<?xml version="1.0" encoding="utf-8"?>
<!-- Generated by IcoMoon.io -->
<!DOCTYPE svg PUBLIC "-//W3C//DTD SVG 1.1//EN" "http://www.w3.org/Graphics/SVG/1.1/DTD/svg11.dtd">
<svg version="1.1" xmlns="http://www.w3.org/2000/svg" xmlns:xlink="http://www.w3.org/1999/xlink" width="16" height="16" viewBox="0 0 16 16">
<path fill="#333" d="M16 13.995c0 1.107-0.895 2.005-1.994 2.005h-12.012c-1.101 0-1.994-0.895-1.994-1.994v-12.012c0-1.101 0.898-1.994 1.998-1.994h4.002v2h-2.991c-0.557 0-1.009 0.456-1.009 1.002v9.995c0 0.554 0.456 1.002 1.002 1.002h9.995c0.554 0 1.002-0.443 1.002-0.999l-0.001-2.001h2.002v2.995z"></path>
<path fill="#333" d="M11.152 2.152l-4.652 4.652 2.475 2.475 4.652-4.652 2.373 2.373v-7h-7l2.152 2.152z"></path>
</svg>
