<?xml version="1.0" encoding="utf-8"?>
<!-- Generated by IcoMoon.io -->
<!DOCTYPE svg PUBLIC "-//W3C//DTD SVG 1.1//EN" "http://www.w3.org/Graphics/SVG/1.1/DTD/svg11.dtd">
<svg version="1.1" xmlns="http://www.w3.org/2000/svg" xmlns:xlink="http://www.w3.org/1999/xlink" width="30" height="32" viewBox="0 0 30 32">
<path fill="#333" d="M7.111 4.067c-4.271 2.67-7.111 7.414-7.111 12.822 0 8.346 6.765 15.111 15.111 15.111s15.111-6.765 15.111-15.111c0-5.408-2.841-10.152-7.111-12.822v4.484c2.191 2.103 3.556 5.061 3.556 8.339 0 6.382-5.174 11.556-11.556 11.556s-11.556-5.174-11.556-11.556c0-3.277 1.364-6.236 3.556-8.339v-4.484zM12.444 2.678c0-1.479 1.184-2.678 2.667-2.678 1.473 0 2.667 1.194 2.667 2.678v14.199c0 1.479-1.184 2.678-2.667 2.678-1.473 0-2.667-1.194-2.667-2.678v-14.199z"></path>
</svg>
