<?xml version="1.0" encoding="utf-8"?>
<!-- Generated by IcoMoon.io -->
<!DOCTYPE svg PUBLIC "-//W3C//DTD SVG 1.1//EN" "http://www.w3.org/Graphics/SVG/1.1/DTD/svg11.dtd">
<svg version="1.1" xmlns="http://www.w3.org/2000/svg" xmlns:xlink="http://www.w3.org/1999/xlink" width="16" height="16" viewBox="0 0 16 16">
<path fill="#333" d="M7.264 6.717c0.717-0.414 1.635-0.168 2.049 0.549s0.168 1.635-0.549 2.049c-0.717 0.414-1.635 0.168-2.049-0.549s-0.168-1.635 0.549-2.049v0z"></path>
<path fill="#333" d="M3.243 10.74c1.519 2.631 4.883 3.532 7.513 2.013s3.532-4.883 2.013-7.513c-1.519-2.631-4.883-3.532-7.513-2.013s-3.532 4.883-2.013 7.513zM11.037 6.24c0.966 1.674 0.393 3.815-1.281 4.781s-3.815 0.393-4.781-1.281c-0.966-1.674-0.393-3.815 1.281-4.781s3.815-0.393 4.781 1.281z"></path>
<path fill="#333" d="M0 9l4 1v-4l-4 1v2zM3.129 1.58l1.134 3.964 3.464-2-2.866-2.964-1.732 1zM11.12 0.58l-2.866 2.964 3.464 2 1.134-3.964-1.732-1zM15.982 7l-4-1v4l4-1v-2zM12.852 14.42l-1.134-3.964-3.464 2 2.866 2.964 1.732-1zM4.862 15.42l2.866-2.964-3.464-2-1.134 3.964 1.732 1z"></path>
</svg>
