<?xml version="1.0" encoding="utf-8"?>
<!-- Generated by IcoMoon.io -->
<!DOCTYPE svg PUBLIC "-//W3C//DTD SVG 1.1//EN" "http://www.w3.org/Graphics/SVG/1.1/DTD/svg11.dtd">
<svg version="1.1" xmlns="http://www.w3.org/2000/svg" xmlns:xlink="http://www.w3.org/1999/xlink" width="32" height="32" viewBox="0 0 32 32">
<path fill="#889cae" d="M29.538 28.308v-20.923c0-1.099-0.48-2.087-1.243-2.763 0.008 0.099 0.012 0.2 0.012 0.301v20.923c0 2.039-1.653 3.692-3.692 3.692h-17.231c-0.373 0-0.733-0.055-1.073-0.158 0.46 1.516 1.868 2.62 3.534 2.62h16c2.039 0 3.692-1.653 3.692-3.692z"></path>
<path fill="#889cae" d="M3.692 3.692h-2.462c-0.68 0-1.231 0.551-1.231 1.231s0.551 1.231 1.231 1.231h2.462c0.68 0 1.231-0.551 1.231-1.231s-0.551-1.231-1.231-1.231z"></path>
<path fill="#889cae" d="M3.692 12.308h-2.462c-0.68 0-1.231 0.551-1.231 1.231s0.551 1.231 1.231 1.231h2.462c0.68 0 1.231-0.551 1.231-1.231s-0.551-1.231-1.231-1.231z"></path>
<path fill="#889cae" d="M3.692 20.923h-2.462c-0.68 0-1.231 0.551-1.231 1.231s0.551 1.231 1.231 1.231h2.462c0.68 0 1.231-0.551 1.231-1.231s-0.551-1.231-1.231-1.231z"></path>
<path fill="#889cae" d="M12.308 8.615h7.385v1.231h-7.385v-1.231z"></path>
<path fill="#889cae" d="M12.308 12.308h7.385v1.231h-7.385v-1.231z"></path>
<path fill="#889cae" d="M12.308 16h7.385v1.231h-7.385v-1.231z"></path>
<path fill="#889cae" d="M23.385 0h-17.231c-1.359 0-2.462 1.102-2.462 2.462 1.359 0 2.462 1.102 2.462 2.462s-1.102 2.462-2.462 2.462v3.692c1.359 0 2.462 1.102 2.462 2.462s-1.102 2.462-2.462 2.462v3.692c1.359 0 2.462 1.102 2.462 2.462s-1.102 2.462-2.462 2.462c0 1.36 1.102 2.462 2.462 2.462h17.231c1.36 0 2.462-1.102 2.462-2.462v-22.154c0-1.359-1.102-2.462-2.462-2.462zM11.077 6.154h9.846c0.68 0 1.231 0.551 1.231 1.231v11.077c0 0.68-0.551 1.231-1.231 1.231h-9.846c-0.68 0-1.231-0.551-1.231-1.231v-11.077c0-0.68 0.551-1.231 1.231-1.231z"></path>
</svg>
