<?xml version="1.0" encoding="utf-8"?>
<!-- Generated by IcoMoon.io -->
<!DOCTYPE svg PUBLIC "-//W3C//DTD SVG 1.1//EN" "http://www.w3.org/Graphics/SVG/1.1/DTD/svg11.dtd">
<svg version="1.1" xmlns="http://www.w3.org/2000/svg" xmlns:xlink="http://www.w3.org/1999/xlink" width="21" height="21" viewBox="0 0 21 21">
<path fill="#333" d="M4.34 9.835c0.068-1.019 0.276-1.979 0.604-2.88v0c-0.897-0.282-1.507-0.571-1.836-0.78l-0.632-0.402 0.876-1.162 0.632 0.402c0.042 0.027 0.153 0.088 0.333 0.173 0.318 0.15 0.707 0.302 1.168 0.445 0.014 0.004 0.027 0.008 0.041 0.013 0.351-0.665 0.771-1.292 1.25-1.881 0.923-1.135 1.853-1.895 2.497-2.29l0.427-0.261v-0.211h1.538v0.211l0.427 0.261c0.645 0.395 1.574 1.155 2.497 2.29 0.477 0.586 0.895 1.21 1.244 1.87 0.003-0.001 0.005-0.002 0.007-0.002 0.472-0.144 0.872-0.297 1.202-0.448 0.188-0.086 0.304-0.148 0.35-0.176l0.64-0.392 0.853 1.176-0.64 0.392c-0.333 0.204-0.942 0.485-1.829 0.761 0.33 0.904 0.539 1.868 0.608 2.891h3.871v1.414h-3.866c-0.061 1.028-0.265 1.994-0.59 2.898 0.875 0.274 1.476 0.552 1.806 0.754l0.64 0.392-0.853 1.176-0.64-0.392c-0.046-0.028-0.162-0.091-0.35-0.176-0.325-0.149-0.718-0.299-1.182-0.441v0c-0.356 0.675-0.784 1.311-1.275 1.905-0.925 1.121-1.856 1.867-2.502 2.252l-0.646 0.384-0.347-0.492h-0.39l-0.347 0.492-0.646-0.384c-0.646-0.385-1.577-1.13-2.502-2.252-0.493-0.598-0.924-1.237-1.281-1.917-0.004 0.001-0.009 0.003-0.013 0.004-0.461 0.143-0.85 0.295-1.168 0.445-0.18 0.085-0.291 0.146-0.333 0.173l-0.632 0.402-0.876-1.162 0.632-0.402c0.326-0.208 0.929-0.493 1.813-0.773-0.323-0.901-0.525-1.863-0.586-2.887h-3.866v-1.414h3.871zM9.7 9.835v-2.131c-1.197-0.037-2.287-0.165-3.272-0.366-0.291 0.781-0.478 1.613-0.546 2.498h3.818zM9.7 11.248h-3.824c0.060 0.889 0.242 1.723 0.528 2.503 0.991-0.204 2.089-0.334 3.296-0.371v-2.131zM11.238 9.835h3.818c-0.068-0.889-0.257-1.726-0.55-2.51-0.988 0.204-2.078 0.335-3.267 0.376v2.134zM11.238 11.248v2.134c1.2 0.041 2.297 0.174 3.291 0.381 0.289-0.783 0.471-1.621 0.532-2.515h-3.824zM9.7 6.289v-3.337c-0.065 0.050-0.135 0.106-0.21 0.167-0.504 0.412-1.010 0.909-1.482 1.49-0.361 0.444-0.684 0.912-0.962 1.404 0.803 0.148 1.688 0.244 2.654 0.276v0zM11.238 6.286v0c0.959-0.036 1.841-0.135 2.647-0.285-0.277-0.488-0.597-0.952-0.956-1.392-0.472-0.581-0.978-1.078-1.482-1.49-0.075-0.061-0.145-0.117-0.21-0.167v3.334zM9.7 14.794v0c-0.978 0.033-1.872 0.131-2.683 0.282 0.284 0.504 0.616 0.982 0.989 1.434 0.471 0.571 0.976 1.059 1.479 1.461 0.077 0.062 0.149 0.118 0.216 0.168v-3.346zM11.238 14.797v3.343c0.067-0.050 0.139-0.106 0.216-0.168 0.503-0.403 1.008-0.89 1.479-1.461 0.37-0.449 0.699-0.923 0.982-1.423-0.814-0.153-1.706-0.254-2.677-0.29v0z"></path>
<path fill="#333" d="M21 10.5c0-5.799-4.701-10.5-10.5-10.5s-10.5 4.701-10.5 10.5c0 5.799 4.701 10.5 10.5 10.5s10.5-4.701 10.5-10.5zM1.5 10.5c0-4.971 4.029-9 9-9s9 4.029 9 9c0 4.971-4.029 9-9 9s-9-4.029-9-9z"></path>
</svg>
