<?xml version="1.0" encoding="utf-8"?>
<!-- Generated by IcoMoon.io -->
<!DOCTYPE svg PUBLIC "-//W3C//DTD SVG 1.1//EN" "http://www.w3.org/Graphics/SVG/1.1/DTD/svg11.dtd">
<svg version="1.1" xmlns="http://www.w3.org/2000/svg" xmlns:xlink="http://www.w3.org/1999/xlink" width="32" height="32" viewBox="0 0 32 32">
<path fill="#889cae" d="M3.692 25.111v-20.683c0-1.085 0.891-1.966 1.991-1.966h10.317l1.231 1.231h-10.462c-1.101 0-1.846 0.761-1.846 1.846v21.538c-1.102 0-1.231-0.88-1.231-1.966z"></path>
<path fill="#889cae" d="M0 21.418v-19.452c0-1.085 0.891-1.966 1.991-1.966h11.548l1.231 1.231h-11.692c-1.101 0-1.846 0.761-1.846 1.846v20.308c-1.102 0-1.231-0.88-1.231-1.966z"></path>
<path fill="#889cae" d="M25.846 32c1.36 0 2.462-1.102 2.462-2.462v-14.769l-9.846-9.846h-8.615c-1.359 0-2.462 1.102-2.462 2.462v22.154c0 1.36 1.102 2.462 2.462 2.462h16zM9.846 28.308v-19.692c0-0.68 0.551-1.231 1.231-1.231h6.154v6.154c0 1.359 1.102 2.462 2.462 2.462h6.154v12.308c0 0.68-0.551 1.231-1.231 1.231h-13.538c-0.68 0-1.231-0.551-1.231-1.231z"></path>
</svg>
