<?xml version="1.0" encoding="utf-8"?>
<!-- Generated by IcoMoon.io -->
<!DOCTYPE svg PUBLIC "-//W3C//DTD SVG 1.1//EN" "http://www.w3.org/Graphics/SVG/1.1/DTD/svg11.dtd">
<svg version="1.1" xmlns="http://www.w3.org/2000/svg" xmlns:xlink="http://www.w3.org/1999/xlink" width="16" height="16" viewBox="0 0 16 16">
<path fill="#333" d="M13.95 7.686v0l0.992-0.124v1h-7.504v-7.504h1l-0.124 0.992c-0.268-0.033-0.54-0.050-0.814-0.050-3.59 0-6.5 2.91-6.5 6.5s2.91 6.5 6.5 6.5c3.59 0 6.5-2.91 6.5-6.5 0-0.274-0.017-0.545-0.050-0.814v0zM14.942 7.563c0.038 0.307 0.058 0.62 0.058 0.938 0 4.142-3.358 7.5-7.5 7.5s-7.5-3.358-7.5-7.5c0-4.142 3.358-7.5 7.5-7.5 0.317 0 0.63 0.020 0.938 0.058v6.504h6.504z"></path>
<path fill="#333" d="M15.929 6c-0.439-3.066-2.863-5.491-5.929-5.929v5.929h5.929z"></path>
<path fill="#333" d="M3.312 9.668h0.984c0.133 0 0.263 0.014 0.388 0.042s0.237 0.074 0.334 0.138c0.097 0.064 0.175 0.148 0.234 0.252s0.088 0.231 0.088 0.38c0 0.205-0.058 0.373-0.174 0.502s-0.274 0.217-0.474 0.262l0.756 1.256h-0.608l-0.656-1.2h-0.368v1.2h-0.504v-2.832zM4.228 10.888c0.072 0 0.144-0.005 0.216-0.016s0.137-0.031 0.194-0.060c0.057-0.029 0.105-0.071 0.142-0.126s0.056-0.125 0.056-0.21c0-0.077-0.017-0.141-0.052-0.19s-0.079-0.089-0.132-0.118c-0.053-0.029-0.114-0.049-0.182-0.060s-0.134-0.016-0.198-0.016h-0.456v0.796h0.412zM6.716 9.668h0.436l1.22 2.832h-0.576l-0.264-0.648h-1.228l-0.256 0.648h-0.564l1.232-2.832zM7.356 11.42l-0.436-1.152-0.444 1.152h0.88zM8.364 9.668h0.552l0.548 2.080h0.008l0.624-2.080h0.52l0.612 2.080h0.008l0.56-2.080h0.536l-0.828 2.832h-0.488l-0.664-2.124h-0.008l-0.664 2.124h-0.488l-0.828-2.832z"></path>
</svg>
