<?xml version="1.0" encoding="utf-8"?>
<!-- Generated by IcoMoon.io -->
<!DOCTYPE svg PUBLIC "-//W3C//DTD SVG 1.1//EN" "http://www.w3.org/Graphics/SVG/1.1/DTD/svg11.dtd">
<svg version="1.1" xmlns="http://www.w3.org/2000/svg" xmlns:xlink="http://www.w3.org/1999/xlink" width="30" height="32" viewBox="0 0 30 32">
<path fill="#333" d="M18.873 31h-17.873c0 0 0 0.049 0-4.288 1.442-2.111 5.604-3.836 11.109-4.423v0c0.3-1.058 0.525-2.289 0.309-3.179-0.949-1.138-2.183-2.695-2.883-4.619v0c-0.012 0.004-0.023 0.007-0.035 0.010-1.399-0.153-1.783-0.952-2-2.5-0.083-1.465 0.442-2.803 1.465-2.994-0.009-4.284 0.475-8.506 6.772-8.506 6.295 0 6.781 4.219 6.772 8.501 1.040 0.173 1.575 1.521 1.491 2.999-0.13 0.931-0.321 1.592-0.758 2.003-0.081-0.002-0.161-0.003-0.242-0.003-4.971 0-9 4.029-9 9 0 3.483 1.978 6.504 4.873 8z"></path>
<path fill="#333" d="M21.5 20.75v-4.25h4v4.25h4.25v4h-4.25v4.25h-4v-4.25h-4.25v-4h4.25z"></path>
</svg>
