<?xml version="1.0" encoding="utf-8"?>
<!-- Generated by IcoMoon.io -->
<!DOCTYPE svg PUBLIC "-//W3C//DTD SVG 1.1//EN" "http://www.w3.org/Graphics/SVG/1.1/DTD/svg11.dtd">
<svg version="1.1" xmlns="http://www.w3.org/2000/svg" xmlns:xlink="http://www.w3.org/1999/xlink" width="27" height="27" viewBox="0 0 27 27">
<path fill="#333" d="M11.217 10l-7 7h-2.218c-1.104 0-2 0.887-2 2v6.001c0 1.104 0.887 2 2 2h6.001c1.104 0 2-0.887 2-2v-2h7v2c0 1.104 0.887 2 2 2h6.001c1.104 0 2-0.887 2-2v-6.001c0-1.104-0.887-2-2-2h-1.613l-7-7h0.613c1.104 0 2-0.887 2-2v-6.001c0-1.104-0.887-2-2-2h-6.001c-1.104 0-2 0.887-2 2v6.001c0 1.104 0.887 2 2 2h0.218zM7.046 17l6.756-6.756 6.756 6.756h-1.559c-1.104 0-2 0.887-2 2v2h-7v-2c0-1.104-0.887-2-2-2h-0.954z"></path>
</svg>
