<?xml version="1.0" encoding="utf-8"?>
<!-- Generated by IcoMoon.io -->
<!DOCTYPE svg PUBLIC "-//W3C//DTD SVG 1.1//EN" "http://www.w3.org/Graphics/SVG/1.1/DTD/svg11.dtd">
<svg version="1.1" xmlns="http://www.w3.org/2000/svg" xmlns:xlink="http://www.w3.org/1999/xlink" width="16" height="16" viewBox="0 0 16 16">
<path fill="#333" d="M11.039 15.98h-11.073c0 0 0 0.382 0-1.943 0.744-1.132 2.893-2.057 5.734-2.372 0.155-0.567 0.271-1.227 0.159-1.705-0.49-0.61-1.127-1.445-1.488-2.477-0.74-0.077-0.939-0.505-1.050-1.335-0.043-0.785 0.228-1.503 0.756-1.605-0.005-2.297 0.245-4.561 3.495-4.561 3.249 0 3.5 2.262 3.495 4.558 0.537 0.093 0.813 0.816 0.77 1.608-0.068 0.503-0.167 0.859-0.396 1.079-0.063-0.002-0.127-0.004-0.191-0.004-2.604 0-4.716 1.961-4.716 4.379 0 2.366 1.401 4.293 4.504 4.377z"></path>
<path fill="#333" d="M16 11v2h-8v-2h8z"></path>
</svg>
