<?xml version="1.0" encoding="utf-8"?>
<!-- Generated by IcoMoon.io -->
<!DOCTYPE svg PUBLIC "-//W3C//DTD SVG 1.1//EN" "http://www.w3.org/Graphics/SVG/1.1/DTD/svg11.dtd">
<svg version="1.1" xmlns="http://www.w3.org/2000/svg" xmlns:xlink="http://www.w3.org/1999/xlink" width="14" height="16" viewBox="0 0 14 16">
<path fill="#333" d="M3.2 2.8h5.6v1.2h-5.6v-1.2zM3.2 5.6h7.6v1.2h-7.6v-1.2zM3.2 8.4h3.2v1.2h-3.2v-1.2zM8.8 5.6v-4h-7.3v12.8h10.9v-8.8h-3.6zM13.341 3.579v0 0c0.591 0.806 0.659 1.197 0.659 1.421v9.75c0 0.689-0.561 1.25-1.25 1.25h-11.5c-0.689 0-1.25-0.561-1.25-1.25v-13.5c0-0.689 0.561-1.25 1.25-1.25h7.75c0.224 0 0.615 0.068 1.421 0.659 0.473 0.347 1.027 0.831 1.558 1.362s1.015 1.085 1.362 1.558v0z"></path>
</svg>
