<?xml version="1.0" encoding="utf-8"?>
<!-- Generated by IcoMoon.io -->
<!DOCTYPE svg PUBLIC "-//W3C//DTD SVG 1.1//EN" "http://www.w3.org/Graphics/SVG/1.1/DTD/svg11.dtd">
<svg version="1.1" xmlns="http://www.w3.org/2000/svg" xmlns:xlink="http://www.w3.org/1999/xlink" width="32" height="32" viewBox="0 0 32 32">
<path fill="#333" d="M1.778 1.778h16v7.111h7.111v5.333h1.778v-5.333l-8.889-8.889h-17.778v32h8.889v-1.778h-7.111v-28.444z"></path>
<path fill="#333" d="M19.556 16c-5.428 0-10.133 3.251-12.444 8 2.312 4.749 7.017 8 12.444 8s10.132-3.251 12.444-8c-2.312-4.749-7.017-8-12.444-8v0 0zM25.692 20.243c1.462 0.959 2.701 2.244 3.632 3.757-0.931 1.513-2.17 2.798-3.632 3.757-1.837 1.205-3.959 1.843-6.136 1.843s-4.299-0.637-6.136-1.843c-1.462-0.959-2.701-2.244-3.632-3.757 0.931-1.513 2.17-2.798 3.632-3.757 0.095-0.063 0.191-0.123 0.288-0.183-0.242 0.683-0.374 1.421-0.374 2.19 0 3.535 2.786 6.4 6.222 6.4s6.222-2.865 6.222-6.4c0-0.769-0.132-1.507-0.375-2.19 0.097 0.059 0.193 0.12 0.288 0.183v0zM19.556 21.45c0 1.326-1.045 2.4-2.333 2.4s-2.333-1.075-2.333-2.4c0-1.326 1.045-2.4 2.333-2.4s2.333 1.075 2.333 2.4v0 0z"></path>
</svg>
