<?xml version="1.0" encoding="utf-8"?>
<!-- Generated by IcoMoon.io -->
<!DOCTYPE svg PUBLIC "-//W3C//DTD SVG 1.1//EN" "http://www.w3.org/Graphics/SVG/1.1/DTD/svg11.dtd">
<svg version="1.1" xmlns="http://www.w3.org/2000/svg" xmlns:xlink="http://www.w3.org/1999/xlink" width="32" height="32" viewBox="0 0 32 32">
<path fill="#889cae" d="M24 0c1.933 0 3.077 1.144 3.077 3.077l0.019 5.538h-2.481v-4.923c0-0.68-0.551-1.231-1.231-1.231h-11.077v7.385c0 1.359-1.102 2.462-2.462 2.462h-7.385v16c0 0.68 0.551 1.231 1.231 1.231h6.115v2.462h-6.308c-1.933 0-3.5-1.567-3.5-3.5v-17.5l11-11h13z"></path>
<path fill="#889cae" d="M9.846 19.077c0 4.418 3.582 8 8 8 1.552 0 3.001-0.442 4.228-1.207l5.228 5.396c0.473 0.488 1.246 0.494 1.727 0.014l0.87-0.87c0.481-0.481 0.487-1.266 0.014-1.754l-5.238-5.407c0.743-1.214 1.172-2.642 1.172-4.17 0-4.418-3.582-8-8-8s-8 3.582-8 8zM23.385 19.077c0 3.059-2.48 5.538-5.538 5.538s-5.538-2.48-5.538-5.538c0-3.059 2.48-5.538 5.538-5.538s5.538 2.48 5.538 5.538z"></path>
</svg>
