<?xml version="1.0" encoding="utf-8"?>
<!-- Generated by IcoMoon.io -->
<!DOCTYPE svg PUBLIC "-//W3C//DTD SVG 1.1//EN" "http://www.w3.org/Graphics/SVG/1.1/DTD/svg11.dtd">
<svg version="1.1" xmlns="http://www.w3.org/2000/svg" xmlns:xlink="http://www.w3.org/1999/xlink" width="32" height="32" viewBox="0 0 32 32">
<path fill="#333" d="M3.556 12.444h14.222c0.982 0 1.778 0.796 1.778 1.778v3.556c0 0.982-0.796 1.778-1.778 1.778h-14.222c-0.982 0-1.778-0.796-1.778-1.778v-3.556c0-0.982 0.796-1.778 1.778-1.778z"></path>
<path fill="#333" d="M5.333 1.778h21.333c0.982 0 1.778 0.796 1.778 1.778v3.556c0 0.982-0.796 1.778-1.778 1.778h-21.333c-0.982 0-1.778-0.796-1.778-1.778v-3.556c0-0.982 0.796-1.778 1.778-1.778z"></path>
<path fill="#333" d="M1.778 23.111h28.444c0.982 0 1.778 0.796 1.778 1.778v5.333c0 0.982-0.796 1.778-1.778 1.778h-28.444c-0.982 0-1.778-0.796-1.778-1.778v-5.333c0-0.982 0.796-1.778 1.778-1.778z"></path>
</svg>
