<?xml version="1.0" encoding="utf-8"?>
<!-- Generated by IcoMoon.io -->
<!DOCTYPE svg PUBLIC "-//W3C//DTD SVG 1.1//EN" "http://www.w3.org/Graphics/SVG/1.1/DTD/svg11.dtd">
<svg version="1.1" xmlns="http://www.w3.org/2000/svg" xmlns:xlink="http://www.w3.org/1999/xlink" width="16" height="16" viewBox="0 0 16 16">
<path fill="#333" d="M11.199 1.938c-1.124 0.651-2.313 1.502-3.413 2.602-0.703 0.704-1.269 1.387-1.725 2.028l-2.787 0.515-3.273 3.276 2.919 0.091 2.056-2.056c-0.726 1.504-0.79 2.5-0.79 2.5l0.92 0.919c0 0 1.029-0.098 2.543-0.831l-2.1 2.097 0.092 2.92 3.275-3.274 0.517-2.801c0.647-0.453 1.331-1.016 2.027-1.712 1.1-1.101 1.951-2.29 2.602-3.414-0.718-0.146-1.377-0.445-1.897-0.964-0.52-0.521-0.821-1.18-0.966-1.898zM12.284 1.357c0.078 0.703 0.312 1.27 0.7 1.656 0.387 0.39 0.953 0.623 1.658 0.701 1.031-2.083 1.357-3.714 1.357-3.714s-1.63 0.326-3.716 1.357z"></path>
</svg>
