<?xml version="1.0" encoding="utf-8"?>
<!-- Generated by IcoMoon.io -->
<!DOCTYPE svg PUBLIC "-//W3C//DTD SVG 1.1//EN" "http://www.w3.org/Graphics/SVG/1.1/DTD/svg11.dtd">
<svg version="1.1" xmlns="http://www.w3.org/2000/svg" xmlns:xlink="http://www.w3.org/1999/xlink" width="32" height="32" viewBox="0 0 32 32">
<path fill="#889cae" d="M24.242 0h-24.242v29.538h16l-1.846-1.231h-8c-1.362 0-2.467-1.1-2.467-2.462v-8.612c0-1.361 1.104-2.465 2.467-2.465h7.385c1.841-2.45 4.356-3.674 7.658-3.674 3.506 0 6.595 1.787 8.404 4.499v-10.239l-5.359-5.355zM7.4 1.232h13.567v7.395h-13.567v-7.395z"></path>
<path fill="#889cae" d="M16.034 2.465h2.467v4.93h-2.467v-4.93z"></path>
<path fill="#889cae" d="M7.57 17.255h-1.403v1.233h5.3c0.117-0.423 0.261-0.834 0.429-1.233h-4.326z"></path>
<path fill="#889cae" d="M7.57 20.952h-1.403v1.232h4.985c-0.033-0.33-0.049-0.665-0.049-1.004 0-0.076 0.001-0.153 0.003-0.229h-3.535z"></path>
<path fill="#889cae" d="M7.57 24.65h-1.403v1.233h6.097c-0.209-0.396-0.393-0.808-0.548-1.233h-4.145z"></path>
<path fill="#889cae" d="M31.201 31.64l0.439-0.439c0.481-0.48 0.481-1.259 0-1.74l-4.473-4.47c0.759-1.161 1.2-2.549 1.2-4.039 0-4.084-3.313-7.395-7.4-7.395s-7.4 3.311-7.4 7.395c0 4.084 3.313 7.395 7.4 7.395 1.48 0 2.858-0.434 4.015-1.182l4.478 4.474c0.481 0.481 1.26 0.481 1.741 0zM25.906 20.952c0 2.723-2.209 4.933-4.939 4.933s-4.939-2.21-4.939-4.933c0-2.723 2.209-4.933 4.939-4.933s4.939 2.21 4.939 4.933z"></path>
</svg>
