<?xml version="1.0" encoding="utf-8"?>
<!-- Generated by IcoMoon.io -->
<!DOCTYPE svg PUBLIC "-//W3C//DTD SVG 1.1//EN" "http://www.w3.org/Graphics/SVG/1.1/DTD/svg11.dtd">
<svg version="1.1" xmlns="http://www.w3.org/2000/svg" xmlns:xlink="http://www.w3.org/1999/xlink" width="32" height="32" viewBox="0 0 32 32">
<path fill="#889cae" d="M21.091 23.363l6.994 7.050c0.479 0.483 1.255 0.483 1.734 0l1.823-1.838c0.479-0.482 0.479-1.265 0-1.747l-7.317-7.375c0.815-1.597 1.276-3.409 1.276-5.328 0-6.441-5.18-11.662-11.57-11.662s-11.57 5.221-11.57 11.662v0.646h-2.462l4.308 4.923 4.308-4.923h-3.136v-0.646c0-4.76 3.829-8.62 8.551-8.62s8.552 3.859 8.552 8.62c0 4.76-3.829 8.62-8.552 8.62-0.947 0.005-1.746-0.126-2.603-0.406l-1.438-0.462-0.918 2.898 1.438 0.463c1.073 0.341 2.332 0.545 3.521 0.55 2.658 0 5.107-0.903 7.060-2.422z"></path>
<path fill="#889cae" d="M14.769 8.615h-2.462v6.084l3.692 3.762 1.846-1.846-3.077-2.93v-5.070z"></path>
</svg>
