<?xml version="1.0" encoding="utf-8"?>
<!-- Generated by IcoMoon.io -->
<!DOCTYPE svg PUBLIC "-//W3C//DTD SVG 1.1//EN" "http://www.w3.org/Graphics/SVG/1.1/DTD/svg11.dtd">
<svg version="1.1" xmlns="http://www.w3.org/2000/svg" xmlns:xlink="http://www.w3.org/1999/xlink" width="16" height="16" viewBox="0 0 16 16">
<path fill="#333" d="M7.467 12.891v-9.158h1.067v9.158c0.455 0.161 0.815 0.521 0.976 0.976h5.958c0.176 0 0.533 0.358 0.533 1.067 0 0.175-0.357 0.533-0.533 0.533h-6.274c-0.293 0.327-0.719 0.533-1.193 0.533s-0.9-0.206-1.193-0.533h-6.274c-0.176 0-0.533-0.358-0.533-0.533 0-0.709 0.357-1.067 0.533-1.067h5.958c0.161-0.455 0.521-0.815 0.976-0.976z"></path>
<path fill="#333" d="M0 1.066c0-0.589 0.479-1.066 1.062-1.066h13.876c0.587 0 1.062 0.473 1.062 1.066v3.2c0 0.589-0.479 1.066-1.062 1.066h-13.876c-0.587 0-1.062-0.473-1.062-1.066v-3.2zM12.8 3.733c0.589 0 1.067-0.478 1.067-1.067s-0.478-1.067-1.067-1.067c-0.589 0-1.067 0.478-1.067 1.067s0.478 1.067 1.067 1.067z"></path>
<path fill="#333" d="M0 6.933c0-0.589 0.479-1.066 1.062-1.066h13.876c0.587 0 1.062 0.473 1.062 1.066v3.2c0 0.589-0.479 1.066-1.062 1.066h-13.876c-0.587 0-1.062-0.473-1.062-1.066v-3.2zM12.8 9.6c0.589 0 1.067-0.478 1.067-1.067s-0.478-1.067-1.067-1.067c-0.589 0-1.067 0.478-1.067 1.067s0.478 1.067 1.067 1.067z"></path>
</svg>
