<?xml version="1.0" encoding="utf-8"?>
<!-- Generated by IcoMoon.io -->
<!DOCTYPE svg PUBLIC "-//W3C//DTD SVG 1.1//EN" "http://www.w3.org/Graphics/SVG/1.1/DTD/svg11.dtd">
<svg version="1.1" xmlns="http://www.w3.org/2000/svg" xmlns:xlink="http://www.w3.org/1999/xlink" width="32" height="32" viewBox="0 0 32 32">
<path fill="#333" d="M27.584 15.491c0.040 0.445 0.061 0.897 0.061 1.354 0 7.26-5.266 13.155-11.752 13.155-6.487 0-11.753-5.895-11.753-13.155 0-0.473 0.022-0.94 0.066-1.4-2.611-0.578-4.206-1.349-4.206-2.195 0-0.834 1.55-1.595 4.095-2.17 0.177-1.033 0.663-2.273 1.191-3.551 1.402-3.395 3.341-6.529 6.285-6.529 2.381 0 2.81 1.495 4.143 1.495 1.334 0 1.477-1.495 3.857-1.495 3.548 0 4.822 2.998 6.286 6.5 0.51 1.219 0.973 2.397 1.171 3.396 3.062 0.592 4.972 1.428 4.972 2.354 0 0.868-1.68 1.658-4.416 2.241zM16.151 16.5c1.063 1.836 2.388 4.877 5.398 4.877 3.071 0 5.032-2.434 5.032-4.516 0-0.377 0.017-0.783 0.013-1.176-2.788 0.501-6.441 0.807-10.443 0.815zM5.268 15.66c-0.005 0.401 0.013 0.816 0.013 1.201 0 2.082 1.961 4.516 5.031 4.516 3.275 0 4.37-3.041 5.402-4.878-4.016-0.014-7.673-0.329-10.446-0.839z"></path>
</svg>
