<?xml version="1.0" encoding="utf-8"?>
<!-- Generated by IcoMoon.io -->
<!DOCTYPE svg PUBLIC "-//W3C//DTD SVG 1.1//EN" "http://www.w3.org/Graphics/SVG/1.1/DTD/svg11.dtd">
<svg version="1.1" xmlns="http://www.w3.org/2000/svg" xmlns:xlink="http://www.w3.org/1999/xlink" width="32" height="32" viewBox="0 0 32 32">
<path fill="#889cae" d="M32 28.308h-28.308v-28.308h-3.692v32h32v-3.692z"></path>
<path fill="#889cae" d="M9.231 24.615c1.699 0 3.077-1.378 3.077-3.077 0-0.884-0.373-1.682-0.97-2.243l2.241-4.58c0.186 0.035 0.379 0.054 0.576 0.054 0.368 0 0.721-0.065 1.048-0.183l3.443 3.443c-0.118 0.327-0.183 0.68-0.183 1.048 0 1.699 1.378 3.077 3.077 3.077s3.077-1.378 3.077-3.077c0-0.696-0.231-1.338-0.621-1.854l4.147-6.247c0.25 0.065 0.512 0.1 0.782 0.1 1.699 0 3.077-1.378 3.077-3.077s-1.378-3.077-3.077-3.077c-1.699 0-3.077 1.378-3.077 3.077 0 0.693 0.229 1.333 0.616 1.847l-4.206 6.237c-0.23-0.055-0.47-0.084-0.717-0.084-0.381 0-0.746 0.069-1.083 0.196l-3.414-3.44c0.122-0.332 0.189-0.69 0.189-1.064 0-1.699-1.378-3.077-3.077-3.077s-3.077 1.378-3.077 3.077c0 0.875 0.365 1.664 0.951 2.225l-2.387 4.572c-0.134-0.018-0.271-0.027-0.41-0.027-1.699 0-3.077 1.378-3.077 3.077s1.378 3.077 3.077 3.077z"></path>
</svg>
