<?xml version="1.0" encoding="utf-8"?>
<!-- Generated by IcoMoon.io -->
<!DOCTYPE svg PUBLIC "-//W3C//DTD SVG 1.1//EN" "http://www.w3.org/Graphics/SVG/1.1/DTD/svg11.dtd">
<svg version="1.1" xmlns="http://www.w3.org/2000/svg" xmlns:xlink="http://www.w3.org/1999/xlink" width="16" height="16" viewBox="0 0 16 16">
<path fill="#333" d="M10.087 9.626c0 0-4.301 0-5.913 3.763 0 0 2.693 1.075 5.913 1.075s5.913-1.075 5.913-1.075c-1.613-3.763-5.913-3.763-5.913-3.763v0zM10.087 9.090c1.613 0 2.687-1.613 2.687-4.301s-2.687-2.688-2.687-2.688c0 0-2.687 0-2.687 2.688s1.075 4.301 2.687 4.301v0zM4.87 7.255c0.53 0 0.985-0.22 1.346-0.616-0.134-0.541-0.207-1.158-0.207-1.851 0-1.033 0.397-1.667 0.886-2.058-0.533-1.228-2.025-1.231-2.025-1.231s-2.214 0-2.214 2.214c0 2.214 0.886 3.542 2.214 3.542v0zM6.957 8.99l-0.075-0.875c-1.084-0.415-2.012-0.417-2.012-0.417s-3.542 0-4.87 3.099c0 0 1.712 0.682 3.927 0.849 1.929-2.019 3.030-2.655 3.030-2.655v0z"></path>
</svg>
