<?xml version="1.0" encoding="utf-8"?>
<!-- Generated by IcoMoon.io -->
<!DOCTYPE svg PUBLIC "-//W3C//DTD SVG 1.1//EN" "http://www.w3.org/Graphics/SVG/1.1/DTD/svg11.dtd">
<svg version="1.1" xmlns="http://www.w3.org/2000/svg" xmlns:xlink="http://www.w3.org/1999/xlink" width="27" height="27" viewBox="0 0 27 27">
<path fill="#333" d="M6.165 5.997h2.182l6.105 14.712h-2.882l-1.321-3.366h-6.145l-1.281 3.366h-2.822l6.165-14.712zM9.367 15.099l-2.182-5.984-2.222 5.984h4.403zM18.173 5v7.003h0.060c0.12-0.166 0.274-0.339 0.46-0.519s0.41-0.346 0.67-0.499c0.26-0.152 0.564-0.281 0.911-0.384s0.741-0.156 1.181-0.156c0.681 0 1.308 0.135 1.881 0.405s1.067 0.641 1.481 1.112c0.414 0.471 0.734 1.025 0.961 1.662s0.34 1.323 0.34 2.057c0 0.734-0.11 1.423-0.33 2.068s-0.534 1.205-0.941 1.683c-0.407 0.478-0.901 0.859-1.481 1.143s-1.238 0.426-1.971 0.426c-0.681 0-1.318-0.152-1.911-0.457s-1.057-0.748-1.391-1.33h-0.040v1.496h-2.282v-15.709h2.402zM23.678 15.681c0-0.388-0.057-0.772-0.17-1.153s-0.284-0.724-0.51-1.029c-0.227-0.305-0.514-0.551-0.861-0.738s-0.754-0.281-1.221-0.281c-0.44 0-0.834 0.097-1.181 0.291s-0.644 0.443-0.891 0.748c-0.247 0.305-0.434 0.651-0.56 1.039s-0.19 0.776-0.19 1.164c0 0.388 0.063 0.772 0.19 1.153s0.314 0.724 0.56 1.029c0.247 0.305 0.544 0.551 0.891 0.738s0.741 0.281 1.181 0.281c0.467 0 0.874-0.097 1.221-0.291s0.634-0.443 0.861-0.748c0.227-0.305 0.397-0.651 0.51-1.039s0.17-0.776 0.17-1.164z"></path>
</svg>
