<?xml version="1.0" encoding="utf-8"?>
<!-- Generated by IcoMoon.io -->
<!DOCTYPE svg PUBLIC "-//W3C//DTD SVG 1.1//EN" "http://www.w3.org/Graphics/SVG/1.1/DTD/svg11.dtd">
<svg version="1.1" xmlns="http://www.w3.org/2000/svg" xmlns:xlink="http://www.w3.org/1999/xlink" width="16" height="16" viewBox="0 0 16 16">
<path fill="#333" d="M6 5.5l-3.5-3.5-0.5 0.5 3.5 3.5 0.5-0.5z"></path>
<path fill="#333" d="M2 3.5l1.5-1.5-2.5-2-1 1 2 2.5z"></path>
<path fill="#333" d="M16 13.5l-2.5 2.5-4.077-4.077 0.75-0.75 3.327 3.327 1-1-3.277-3.377 0.7-0.7 4.077 4.077z"></path>
<path fill="#333" d="M9.453 2.118c-0.925 0.925-1.171 2.325-0.646 3.53l-0.917 0.399c-0.672-1.543-0.389-3.392 0.856-4.637 1.199-1.199 3.289-1.875 5.254-0.411l-2.323 2.323 0.894 0.894 2.359-2.359c1.988 1.988 1.026 4.364-0.173 5.562-1.231 1.231-3.052 1.522-4.584 0.878l0.387-0.922c1.198 0.503 2.576 0.251 3.49-0.663 1.050-1.050 1.349-2.196 0.559-3.458l-2.177 2.177-1.963-1.963 2.141-2.141c-0.969-0.469-2.107-0.26-3.157 0.79z"></path>
<path fill="#333" d="M10.558 7.385l-0.508-0.412-6.982 7.459-1.5-1.5 7.502-7.002-0.288-0.288-0.782-0.142-8.079 7.421 3.119 3.119 7.748-8.392-0.229-0.263z"></path>
</svg>
