<?xml version="1.0" encoding="utf-8"?>
<!-- Generated by IcoMoon.io -->
<!DOCTYPE svg PUBLIC "-//W3C//DTD SVG 1.1//EN" "http://www.w3.org/Graphics/SVG/1.1/DTD/svg11.dtd">
<svg version="1.1" xmlns="http://www.w3.org/2000/svg" xmlns:xlink="http://www.w3.org/1999/xlink" width="21" height="21" viewBox="0 0 21 21">
<path fill="#333" d="M6.328 11.563c0-0.675-0.204-1.176-0.612-1.501s-0.949-0.487-1.625-0.487c-0.51 0-0.991 0.099-1.443 0.296s-0.832 0.449-1.137 0.755l-0.956-1.147c0.446-0.421 0.991-0.752 1.634-0.994s1.335-0.363 2.074-0.363c0.65 0 1.214 0.092 1.692 0.277s0.87 0.436 1.176 0.755c0.306 0.319 0.535 0.695 0.688 1.128s0.229 0.898 0.229 1.396v3.957c0 0.306 0.010 0.628 0.029 0.965s0.054 0.615 0.105 0.832h-1.625c-0.102-0.433-0.153-0.867-0.153-1.3h-0.057c-0.331 0.484-0.749 0.86-1.252 1.128s-1.099 0.401-1.787 0.401c-0.357 0-0.73-0.048-1.118-0.143s-0.742-0.252-1.061-0.468c-0.319-0.217-0.583-0.503-0.793-0.86s-0.315-0.797-0.315-1.319c0-0.688 0.185-1.233 0.554-1.634s0.854-0.707 1.453-0.918c0.599-0.21 1.274-0.347 2.026-0.411s1.51-0.096 2.275-0.096v-0.249zM5.889 13.112c-0.446 0-0.908 0.019-1.386 0.057s-0.911 0.115-1.3 0.229c-0.389 0.115-0.71 0.287-0.965 0.516s-0.382 0.535-0.382 0.918c0 0.268 0.054 0.491 0.162 0.669s0.252 0.325 0.43 0.44c0.178 0.115 0.376 0.194 0.593 0.239s0.44 0.067 0.669 0.067c0.841 0 1.488-0.252 1.94-0.755s0.679-1.137 0.679-1.902v-0.478h-0.44zM6.1 5.090c0 0.582-0.196 1.063-0.587 1.442s-0.866 0.569-1.423 0.569c-0.279 0-0.537-0.051-0.776-0.152s-0.448-0.24-0.627-0.416c-0.179-0.176-0.322-0.386-0.428-0.629s-0.159-0.508-0.159-0.792c0-0.582 0.192-1.063 0.577-1.442s0.856-0.569 1.413-0.569c0.557 0 1.032 0.19 1.423 0.569s0.587 0.853 0.587 1.421v0zM5.1 5.091c0-0.283-0.1-0.519-0.299-0.708s-0.436-0.283-0.709-0.283c-0.262 0-0.493 0.094-0.692 0.283s-0.299 0.425-0.299 0.708c0 0.283 0.1 0.522 0.299 0.717s0.43 0.292 0.692 0.292c0.274 0 0.51-0.094 0.709-0.283s0.299-0.431 0.299-0.726v0zM12.828 15.998v1.434h-1.74v-14.452h1.797v6.748h0.057c0.306-0.446 0.733-0.825 1.281-1.137s1.198-0.468 1.95-0.468c0.675 0 1.29 0.121 1.845 0.363s1.032 0.58 1.434 1.013c0.401 0.433 0.71 0.94 0.927 1.52s0.325 1.201 0.325 1.864c0 0.663-0.108 1.287-0.325 1.873s-0.523 1.096-0.918 1.529c-0.395 0.433-0.873 0.774-1.434 1.023s-1.192 0.373-1.893 0.373c-0.65 0-1.268-0.143-1.854-0.43s-1.058-0.704-1.415-1.252h-0.038zM18.85 12.882c0-0.421-0.064-0.828-0.191-1.223s-0.319-0.746-0.574-1.051c-0.255-0.306-0.57-0.548-0.946-0.726s-0.812-0.268-1.309-0.268c-0.459 0-0.876 0.089-1.252 0.268s-0.698 0.421-0.965 0.726c-0.268 0.306-0.475 0.656-0.621 1.051s-0.22 0.809-0.22 1.243c0 0.433 0.073 0.848 0.22 1.243s0.354 0.742 0.621 1.042c0.268 0.299 0.589 0.538 0.965 0.717s0.793 0.268 1.252 0.268c0.497 0 0.934-0.092 1.309-0.277s0.691-0.43 0.946-0.736c0.255-0.306 0.446-0.656 0.574-1.051s0.191-0.803 0.191-1.223v0z"></path>
</svg>
