<?xml version="1.0" encoding="utf-8"?>
<!-- Generated by IcoMoon.io -->
<!DOCTYPE svg PUBLIC "-//W3C//DTD SVG 1.1//EN" "http://www.w3.org/Graphics/SVG/1.1/DTD/svg11.dtd">
<svg version="1.1" xmlns="http://www.w3.org/2000/svg" xmlns:xlink="http://www.w3.org/1999/xlink" width="21" height="21" viewBox="0 0 21 21">
<path fill="#333" d="M6 6v2.571h6v-2.571h2.005c2.206 0 3.995 1.797 3.995 3.996v4.008c0 2.207-1.792 3.996-3.995 3.996h-10.010c-2.206 0-3.995-1.797-3.995-3.996v-4.008c0-2.207 1.792-3.996 3.995-3.996h2.005zM9 15c0.947 0 1.714-0.768 1.714-1.714s-0.768-1.714-1.714-1.714c-0.947 0-1.714 0.768-1.714 1.714s0.768 1.714 1.714 1.714z"></path>
<path fill="#333" d="M12 4.5v4.5h9v-4.5c0-2.48-2.015-4.5-4.5-4.5-2.48 0-4.5 2.015-4.5 4.5zM13.5 5.009c0-1.662 1.347-3.009 3-3.009 1.657 0 3 1.35 3 3.009v3.991h-6v-3.991z"></path>
</svg>
