<?xml version="1.0" encoding="utf-8"?>
<!-- Generated by IcoMoon.io -->
<!DOCTYPE svg PUBLIC "-//W3C//DTD SVG 1.1//EN" "http://www.w3.org/Graphics/SVG/1.1/DTD/svg11.dtd">
<svg version="1.1" xmlns="http://www.w3.org/2000/svg" xmlns:xlink="http://www.w3.org/1999/xlink" width="40" height="40" viewBox="0 0 40 40">
<path fill="#333" d="M26.455 6c-0.008-0-0.016-0-0.024-0h-12.785l-5.439-3.063c-0.487-0.274-1.234-0.227-1.682 0.097l-5.958 4.313c-0.446 0.323-0.433 0.826 0.034 1.12l6.4 4.037v18.504c0 0.536 0.449 0.992 1.003 0.992h23.993c0.552 0 1.003-0.444 1.003-0.992v-18.44l6.501-4.1c0.467-0.294 0.479-0.798 0.034-1.12l-5.958-4.313c-0.448-0.324-1.194-0.372-1.682-0.097l-5.44 3.063zM13.235 8.355c0.2-0.196 0.585-0.355 0.865-0.355h11.8c0.277 0 0.657 0.152 0.865 0.355l3.015 2.948c0.394 0.385 0.274 0.697-0.286 0.697h-18.989c-0.551 0-0.677-0.314-0.286-0.697l3.015-2.948zM16 14h4v2h-4v-2zM20 16h4v2h-4v-2zM16 18h4v2h-4v-2zM20 20h4v2h-4v-2zM16 22h4v2h-4v-2zM20 24h4v2h-4v-2zM16 26h4v2h-4v-2zM16 28h8v4h-8v-4z"></path>
<path fill="#333" d="M18 30.998v7.005c0 0.551 0.452 0.998 1.009 0.998h1.981c0.566 0 1.009-0.447 1.009-0.998v-7.005c0-0.551-0.452-0.998-1.009-0.998h-1.981c-0.566 0-1.009 0.447-1.009 0.998zM19 35h2v2h-2v-2z"></path>
</svg>
