<?xml version="1.0" encoding="utf-8"?>
<!-- Generated by IcoMoon.io -->
<!DOCTYPE svg PUBLIC "-//W3C//DTD SVG 1.1//EN" "http://www.w3.org/Graphics/SVG/1.1/DTD/svg11.dtd">
<svg version="1.1" xmlns="http://www.w3.org/2000/svg" xmlns:xlink="http://www.w3.org/1999/xlink" width="16" height="16" viewBox="0 0 16 16">
<path fill="#333" d="M8 10.667c4.667 0 7.968 3.333 7.968 5.333h-15.935c0-2 3.301-5.333 7.968-5.333zM8 12c-4 0-6 2.667-6 2.667h12c0 0-2-2.667-6-2.667z"></path>
<path fill="#333" d="M12.667 4.667c0-2.577-2.089-4.667-4.667-4.667s-4.667 2.089-4.667 4.667c0 2.577 2.089 4.667 4.667 4.667s4.667-2.089 4.667-4.667zM4.667 4.667c0-1.841 1.492-3.333 3.333-3.333s3.333 1.492 3.333 3.333c0 1.841-1.492 3.333-3.333 3.333s-3.333-1.492-3.333-3.333z"></path>
</svg>
