<?xml version="1.0" encoding="utf-8"?>
<!-- Generated by IcoMoon.io -->
<!DOCTYPE svg PUBLIC "-//W3C//DTD SVG 1.1//EN" "http://www.w3.org/Graphics/SVG/1.1/DTD/svg11.dtd">
<svg version="1.1" xmlns="http://www.w3.org/2000/svg" xmlns:xlink="http://www.w3.org/1999/xlink" width="36" height="40" viewBox="0 0 36 40">
<path fill="#333" d="M2 2h24v22h2v-24h-28v32h20v-2h-18v-28z"></path>
<path fill="#333" d="M32 36v-12l-12 12h12z"></path>
<path fill="#333" d="M30.049 35.4l1.351-1.351-10.049-10.049-1.351 1.351 10.049 10.049z"></path>
<path fill="#333" d="M34 38h-26v2h28v-26h-2v24z"></path>
<path fill="#333" d="M30 28h2v-20h-2v20z"></path>
<path fill="#333" d="M24 36v-2h-20v2h20z"></path>
<path fill="#333" d="M14 12c-2 0-6.578 0.246-8.174 3.816v-1.633c1.596 3.571 4.74 5.816 8.174 5.816s6.578-2.246 8.174-5.816v1.633c-1.596-3.571-6.174-3.816-8.174-3.816zM14 8v0c4.362 0 8.142 2.845 10 7-1.858 4.155-5.638 7-10 7s-8.142-2.845-10-7c1.858-4.155 5.638-7 10-7v0z"></path>
<path fill="#333" d="M18 14c0 2.209-1.791 4-4 4s-4-1.791-4-4c0-2.209 1.791-4 4-4s4 1.791 4 4z"></path>
</svg>
